<?xml version="1.0" encoding="utf-8"?>
<svg version="1.1" class="Lima_Logo" xmlns="http://www.w3.org/2000/svg" xmlns:xlink="http://www.w3.org/1999/xlink" x="0px" y="0px"
	 viewBox="0 0 1204.7 1238.4" style="enable-background:new 0 0 1204.7 1238.4;" xml:space="preserve">
<defs><style>.sta{fill:#1D1D1B;} .st1{fill:#FFFFFF;} .st0{fill:#1D1D1B;}</style></defs>
<title>lima_Logo_50x50</title>
<polygon class="sta" points="602.4,0 903.6,525.2 1204.7,1050.4 602.4,1050.4 0,1050.4 301.2,525.2 "/>
<path class="st1" d="M300.6,707.4v237.1c0,11.2,0.9,18.6,2.5,22.3c1.5,3.5,4.2,6.4,7.5,8.3c3.4,1.9,9.7,2.8,18.9,2.8v7.1h-87.6v-7.1
	c8.2,0,13.8-0.8,16.8-2.5c3.2-1.9,5.7-4.9,7-8.4c1.7-3.9,2.5-11.4,2.5-22.5V782.2c0-20.2-0.4-32.5-1.4-37.2s-2.4-7.8-4.4-9.4
	c-2.2-1.8-4.9-2.7-7.7-2.5c-3.4,0-7.7,1-12.9,3.1l-3.3-6.8l53.3-21.8H300.6z"/>
<path class="st1" d="M421.8,800.9v143.6c0,11.2,0.8,18.7,2.5,22.4c1.4,3.5,4,6.4,7.3,8.3c3.2,1.8,9,2.7,17.4,2.7v7.1h-86.8v-7.1
	c8.7,0,14.6-0.8,17.6-2.5c3.2-1.9,5.7-4.9,7.1-8.4c1.8-3.9,2.7-11.4,2.7-22.5v-68.8c0-19.4-0.6-32-1.7-37.7c-1-4.1-2.4-7-4.3-8.6
	c-2.3-1.7-5.1-2.6-8-2.5c-3.6,0-8.1,1-13.3,3l-2.7-7l53.9-21.8L421.8,800.9z M405.6,707.4c10.9,0,19.7,8.8,19.7,19.7
	c0.1,5.3-2,10.3-5.8,14c-3.6,3.8-8.7,6-13.9,5.9c-11-0.1-19.8-8.9-19.9-19.9c0-10.8,8.7-19.7,19.5-19.7
	C405.4,707.4,405.5,707.4,405.6,707.4z"/>
<path class="st1" d="M534.3,838.9c13-13,20.7-20.5,23-22.4c5.6-4.8,12-8.7,18.9-11.5c6.4-2.6,13.2-4,20.2-4.1
	c11.2,0,20.8,3.3,28.9,9.8c8,6.5,13.4,15.8,16.1,28.2c13.4-15.6,24.7-25.8,34-30.7c8.8-4.8,18.6-7.3,28.5-7.3
	c9-0.1,17.8,2.4,25.3,7.3c7.4,4.9,13.2,12.8,17.4,23.9c2.9,7.6,4.3,19.4,4.3,35.5v76.9c0,11.2,0.8,18.8,2.5,23
	c1.6,3.2,4.1,5.7,7.2,7.4c3.5,2,9.2,3,17.2,3v7.1h-88.2v-7.1h3.7c7.7,0,13.7-1.4,18-4.4c3-2.1,5.1-5.4,6.4-10.1
	c0.5-2.1,0.8-8.4,0.8-18.8v-76.9c0-14.6-1.8-24.9-5.3-30.8c-5-8.3-13.2-12.5-24.4-12.5c-7.2,0.1-14.4,1.9-20.8,5.2
	c-7,3.4-15.4,9.8-25.3,19.2l-0.3,2.2l0.3,8.4v85.3c0,12.3,0.8,19.9,2.1,22.8s3.9,5.5,7.7,7.5s10.2,3,19.3,3v7.1h-90.4v-7.1
	c9.9,0,16.7-1.2,20.4-3.4c3.8-2.4,6.5-6.2,7.7-10.5c0.6-2.2,1-8.6,1-19.4v-76.9c0-14.6-2.1-25-6.4-31.5c-5.8-8.3-13.8-12.5-24-12.5
	c-7.3,0.1-14.5,2.1-20.9,5.7c-10.8,5.7-19.1,12.2-25,19.3v95.8c0,11.7,0.8,19.4,2.5,22.8c1.4,3.4,4,6.2,7.2,7.9
	c3.2,1.8,9.7,2.6,19.4,2.6v7.1H475v-7.1c8.2,0,13.9-0.8,17.2-2.6c3.3-1.9,6-4.8,7.4-8.4c1.7-3.8,2.5-11.3,2.5-22.4v-68.3
	c0-19.7-0.5-32.3-1.7-38.1c-0.9-4.3-2.4-7.2-4.3-8.8c-2.3-1.7-5.1-2.6-8-2.5c-3.7,0-8,1-13,3l-3-7l53.9-21.8h8.4L534.3,838.9z"/>
<path class="st1" d="M903.4,959.2c-18.3,14.2-29.9,22.4-34.6,24.5c-7,3.3-14.7,5-22.4,5c-12.3,0-22.5-4.2-30.5-12.7
	c-8-8.5-12-19.6-12-33.4c0-8.7,2-16.3,5.9-22.7c5.3-8.9,14.6-17.2,27.8-25c13.2-7.8,35.1-17.3,65.9-28.5v-7c0-17.8-2.8-30-8.5-36.7
	c-5.7-6.6-13.9-10-24.7-10c-8.2,0-14.7,2.2-19.5,6.7s-7.4,9.6-7.4,15.2l0.4,11.4c0,5.9-1.5,10.6-4.6,13.8s-7,4.9-12,4.9
	c-4.5,0.1-8.8-1.7-11.8-5.1c-3.1-3.3-4.6-8-4.6-13.8c0-11.2,5.7-21.5,17.2-30.8s27.5-14.1,48.2-14.1c15.9,0,28.9,2.7,39,8
	c7.7,4.1,13.8,10.8,17,19c2.3,5.5,3.5,17,3.5,34.3v60.7c0,17,0.3,27.5,1,31.4s1.7,6.3,3.2,7.7c1.4,1.3,3.3,2,5.2,2
	c1.9,0,3.8-0.5,5.5-1.4c2.7-1.7,8-6.4,15.8-14.3v11c-14.5,19.5-28.5,29.3-41.8,29.3c-6.4,0-11.4-2.2-15.2-6.7
	C905.5,977.3,903.5,969.8,903.4,959.2z M903.4,946.5v-68.1c-19.7,7.8-32.4,13.3-38.1,16.6c-10.3,5.7-17.6,11.7-22,17.9
	c-4.4,6-6.7,13.2-6.7,20.6c0,9.3,2.8,17.1,8.4,23.3s12,9.2,19.3,9.2C874.3,966,887.3,959.4,903.4,946.5L903.4,946.5z"/>
<path class="st0" d="M7.7,1236.2v-138.3h29.8v138.3H7.7z"/>
<path class="st0" d="M72.4,1122.4v-24.5h29.8v24.5H72.4z M72.4,1236.2V1136h29.8v100.2L72.4,1236.2z"/>
<path class="st0" d="M134.8,1136h27.5v13.7c9.8-10.6,21.5-15.9,35.1-15.9c6.5-0.1,12.9,1.2,18.8,4c5.4,2.7,9.9,6.9,13.1,12
	c4.5-5,9.9-9.1,16-12c5.8-2.7,12-4,18.4-4c8.3,0,15.2,1.5,20.9,4.4c5.6,2.9,10.1,7.5,12.8,13.2c2.1,4.3,3.1,11.2,3.1,20.8v64h-29.8
	v-57.3c0-9.9-1-16.3-3.1-19.2c-2.7-3.8-7-5.6-12.7-5.6c-4.2,0-8.2,1.2-11.8,3.4c-3.7,2.3-6.6,5.8-8,10c-1.6,4.3-2.4,11.2-2.4,20.7
	v48.1h-29.8v-54.9c0-9.7-0.5-16-1.6-18.9c-0.9-2.6-2.6-4.8-4.9-6.3c-2.8-1.4-5.9-2.1-9.1-2c-4.3-0.1-8.6,1.1-12.4,3.3
	c-3.7,2.2-6.4,5.6-7.9,9.6c-1.6,4.1-2.4,11-2.4,20.6v48.7h-29.8L134.8,1136z"/>
<path class="st0" d="M356.8,1166.6l-27-4.3c3-9.7,8.3-16.8,15.7-21.5c7.5-4.7,18.5-7,33.1-7c13.3,0,23.2,1.3,29.7,4.2
	s11.1,6.4,13.7,10.7c2.6,4.3,4,12.2,4,23.7l-0.4,30.9c0,8.8,0.5,15.4,1.4,19.5c1.2,4.7,3,9.2,5.4,13.5h-29.5
	c-0.8-1.8-1.7-4.4-2.8-7.9c-0.5-1.6-0.9-2.6-1.1-3.1c-4.8,4.2-10.3,7.6-16.3,9.9c-5.9,2.3-12.2,3.4-18.6,3.3
	c-11.6,0-20.7-2.8-27.4-8.4c-6.5-5.1-10.2-13-10-21.2c-0.1-5.4,1.5-10.7,4.5-15.1c3.2-4.6,7.6-8.1,12.8-10.2
	c5.5-2.4,13.4-4.4,23.7-6.2c13.9-2.3,23.6-4.5,29-6.5v-2.6c0-5.1-1.4-8.7-4.3-10.9s-8.1-3.3-16-3.3c-5.3,0-9.4,0.9-12.4,2.8
	C361,1158.6,358.7,1161.9,356.8,1166.6z M396.7,1188.1c-3.8,1.1-9.9,2.5-18.1,4.1s-13.6,3.1-16.2,4.6c-4,2.4-5.9,5.6-5.9,9.3
	c0,3.7,1.7,7.3,4.7,9.6c3.3,2.8,7.5,4.2,11.9,4.1c5.5,0,10.8-1.7,15.4-4.7c3.3-2,5.8-5.2,7.1-8.9c0.8-2.2,1.2-6.6,1.2-12.9
	L396.7,1188.1z"/>
<path class="st0" d="M459.7,1236.2v-26.5h29.8v26.5H459.7z"/>
<path class="st0" d="M622.6,1165.6l-29.4,4.7c-1-5.2-3.2-9.1-6.7-11.7c-3.5-2.6-8.1-3.9-13.6-3.9c-7.4,0-13.3,2.3-17.8,6.9
	c-4.4,4.5-6.7,12.2-6.7,22.9c0,11.8,2.3,20.3,6.7,25.2c4.5,4.9,10.5,7.3,18.1,7.3c5.7,0,10.2-1.5,13.9-4.3s6.2-7.8,7.7-14.7
	l29.3,4.3c-3.1,12-8.9,21-17.5,27.1c-8.6,6.2-20.2,9.2-34.7,9.2c-16.5,0-29.6-4.6-39.4-13.9c-9.8-9.2-14.7-22-14.7-38.3
	c0-16.5,4.9-29.4,14.8-38.6c9.8-9.2,23.1-13.8,39.9-13.8c13.7,0,24.6,2.6,32.7,7.8S619,1154.8,622.6,1165.6z"/>
<path class="st0" d="M642.6,1184.7c0.1-9,2.6-17.9,7.3-25.6c4.9-8.2,12.1-14.8,20.8-18.9c8.9-4.4,18.9-6.5,29.9-6.5
	c17,0,31,5,41.9,14.7s16.4,22.3,16.4,37.3s-5.5,27.8-16.5,37.6c-11,10-24.9,15-41.5,15c-10.2,0-20.2-2.1-29.5-6.2
	c-9.4-4.2-16.5-10.3-21.4-18.3C645.1,1206,642.6,1196.2,642.6,1184.7z M673.2,1186.1c0,9.9,2.6,17.5,7.9,22.8
	c5.2,5.2,12.3,8.1,19.6,7.9c7.3,0.2,14.4-2.7,19.6-7.9c5.3-5.3,7.9-12.9,7.9-23c0-9.8-2.6-17.3-7.9-22.6c-5.2-5.2-12.2-8.1-19.6-7.9
	c-7.3-0.1-14.4,2.7-19.6,7.9C675.8,1168.6,673.2,1176.1,673.2,1186.1L673.2,1186.1z"/>
<path class="st0" d="M784.3,1136h27.5v13.7c9.8-10.6,21.5-15.9,35.1-15.9c6.5-0.1,12.9,1.2,18.8,4c5.4,2.7,9.9,6.9,13,12
	c4.5-5,9.9-9.1,16-12c5.7-2.7,12-4,18.3-4c8.3,0,15.3,1.5,21,4.4c5.6,2.9,10.1,7.5,12.8,13.2c2,4.3,3,11.2,3,20.8v64H920v-57.3
	c0-9.9-1-16.3-3-19.2c-2.8-3.8-7-5.6-12.7-5.6c-4.2,0-8.2,1.2-11.8,3.4c-3.7,2.3-6.6,5.8-8,10c-1.6,4.3-2.4,11.2-2.4,20.7v48.1
	h-29.6v-54.9c0-9.7-0.6-16-1.6-18.9c-0.9-2.6-2.6-4.8-4.9-6.3c-2.8-1.4-5.9-2.1-9.1-2c-4.4-0.1-8.7,1.1-12.5,3.3
	c-3.6,2.2-6.4,5.6-7.9,9.6c-1.6,4.1-2.4,11-2.4,20.6v48.7h-29.8L784.3,1136z"/>
<path class="st0" d="M984,1236.2v-26.5h29.8v26.5H984z"/>
<path class="st0" d="M1100.3,1136v21.2H1080v40.4c0,8.1,0.2,12.9,0.6,14.3c0.4,1.4,1.4,2.6,2.6,3.3c1.5,0.9,3.2,1.4,5,1.3
	c2.8,0,6.8-0.9,12-2.5l2.5,20.5c-7.5,2.8-15.5,4.1-23.6,4c-4.9,0.1-9.9-0.7-14.5-2.4c-4.3-1.6-7.5-3.7-9.5-6.3
	c-2-2.6-3.4-5.9-4.2-10.3c-0.7-3-1-9.2-1-18.6v-43.6h-13.7V1136h13.7v-19.9l29.9-15.4v35.3L1100.3,1136z"/>
<path class="st0" d="M1153.9,1236.2h-29.8V1136h27.7v14.2c4.7-6.7,8.9-11.1,12.8-13.2c3.9-2.2,8.4-3.3,12.9-3.2
	c6.9,0,13.6,1.7,19.6,5l-9.2,23.1c-5-2.9-9.7-4.3-13.9-4.3c-3.8-0.1-7.5,1-10.7,3.1c-2.9,2-5.2,5.7-6.8,11.1s-2.5,16.5-2.5,33.6
	L1153.9,1236.2z"/>
</svg>
