<?xml version="1.0" encoding="utf-8"?>
<!-- Generator: Adobe Illustrator 22.0.1, SVG Export Plug-In . SVG Version: 6.00 Build 0)  -->
<svg version="1.1" id="Advantech_Logo" xmlns="http://www.w3.org/2000/svg" xmlns:xlink="http://www.w3.org/1999/xlink" x="0px"
	 y="0px" viewBox="0 0 510.2 198.4" style="enable-background:new 0 0 510.2 198.4;" xml:space="preserve">
<style type="text/css">
	.st0{fill:#0C4478;}
	.st1{fill:#FFFFFF;}
</style>
<g>
	<g>
		<rect x="14.8" y="36.1" class="st0" width="383.8" height="78.1"/>
		<g>
			<path class="st1" d="M101.3,61.7v41h8.9c14.1,0,22.4-8.7,22.4-20.2s-7.7-20.9-24.2-20.9H101.3z M110.5,94.3V69.7
				c9-0.5,13,5.8,13,13.1C123.6,89.6,119.3,94.9,110.5,94.3z"/>
			<polygon class="st1" points="226,61.7 216.7,61.7 216.7,84.5 191.5,61 191.5,102.7 200.7,102.7 200.7,81.3 226,104.4 			"/>
			<polygon class="st1" points="229.9,69.6 241.2,69.6 241.2,102.7 251.1,102.7 251.1,69.6 262.2,69.6 262.2,61.7 229.9,61.7 			"/>
			<polygon class="st1" points="265.8,102.7 265.8,61.7 290,61.7 290,69.5 275.1,69.5 275.1,78.2 288.5,78.2 288.5,86.1 275.1,86.1 
				275.1,94.9 290,94.9 290,102.7 			"/>
			<polygon class="st1" points="354.3,61.7 354.3,78.3 338.4,78.3 338.4,61.7 329.2,61.7 329.2,102.7 338.4,102.7 338.4,86.1 
				354.3,86.1 354.3,102.7 363.5,102.7 363.5,61.7 			"/>
			<polygon class="st1" points="128.2,61.7 149.3,103.8 154.3,93.1 139,61.7 			"/>
			<polygon class="st1" points="170.1,60.3 165,70.9 169.3,81.9 159.7,81.9 156.5,88.7 171.9,88.7 177.8,102.7 188.5,102.7 			"/>
			<path class="st1" d="M292,82.3c0,13.5,10.1,20.9,22.6,20.9c3.4,0.1,6.7-0.8,9.7-2.4V91c-1.9,2.5-5.7,4.2-9.5,4.2
				c-7.5,0-13.4-5.1-13.4-13.2s6.6-12.9,13.4-12.9c3.8,0,7.6,1.7,9.5,4.2v-9c-1.7-1.5-4.9-2.9-9.8-2.9C302,61.5,292,70.3,292,82.3z"
				/>
			<path class="st1" d="M69.3,86.6l5.9-14.5l5.9,14.5H69.3z M99.1,102.7L75.6,51.5l-23.7,51.2h11.6l3.4-8.6h16.8l3.4,8.6H99.1z"/>
		</g>
	</g>
	<g>
		<g>
			<path class="st0" d="M161.9,138l-2.1,7.4h0.6c1.7,0,3-0.2,3.7-0.7c0.9-0.6,1.6-1.4,2-2.4h0.5l-2.1,7.4H164
				c0.1-0.4,0.1-0.8,0.1-1.2c0-0.5-0.1-0.9-0.5-1.3c-0.3-0.3-0.7-0.6-1.2-0.7c-0.7-0.1-1.3-0.2-2-0.1h-1.1l-1.8,6.4
				c-0.1,0.4-0.2,0.8-0.2,1.3c0,0.2,0.1,0.4,0.3,0.5c0.5,0.2,1.1,0.3,1.7,0.3c1.6,0,3.1-0.3,4.5-1c1.5-0.7,2.8-1.8,3.8-3.1h0.6
				l-2,5.2h-16.1l0.2-0.5c0.7,0.1,1.4-0.1,2-0.5c0.6-0.7,1-1.5,1.1-2.4l3.5-12.3c0.2-0.5,0.3-1.1,0.3-1.6c0-0.3-0.1-0.6-0.4-0.8
				c-0.6-0.3-1.2-0.4-1.8-0.4l0.2-0.5h15.4l-1.2,4.8h-0.5c0-0.7-0.1-1.4-0.5-2c-0.4-0.6-0.9-1-1.6-1.3c-1-0.3-2.1-0.5-3.2-0.4
				L161.9,138z"/>
			<path class="st0" d="M155.3,136.7l-0.3,0.6l-0.1,0.2h0.2c0.6,0,1.2,0.1,1.7,0.4c0.2,0.2,0.3,0.4,0.3,0.7l-0.3,1.6l-3.5,12.3
				c-0.1,0.8-0.5,1.6-1.1,2.3c-0.5,0.4-1.2,0.6-1.9,0.5l-0.3,0.6l-0.1,0.2h16.4l2.2-5.3l0.1-0.2h-0.8c-1.1,1.3-2.4,2.3-3.9,3.1
				c-1.4,0.7-2.9,1-4.5,1c-0.6,0.1-1.1,0-1.6-0.3c-0.1-0.1-0.2-0.2-0.2-0.4l0.2-1.2l1.8-6.4l0.9,0.1l1.9,0.2l1.1,0.6l0.4,1.2
				l-0.1,1.4h0.6l2.4-7.7h-0.7c-0.5,1-1.2,1.8-2.1,2.4c-1.2,0.5-2.4,0.7-3.7,0.6h-0.5c0.1-0.4,1.9-6.9,2-7.1h1.7
				c1.1-0.1,2.2,0.1,3.2,0.4c0.6,0.3,1.2,0.7,1.5,1.3c0.3,0.6,0.4,1.2,0.4,1.9l0.6,0.2l1.4-4.9l0.1-0.2L155.3,136.7z M155.4,136.9
				l15,0.1c-0.1,0.4-1.2,4.6-1.2,4.6l-0.3-0.1c0.1-0.7,0-1.3-0.3-1.9c-0.4-0.6-1-1.1-1.7-1.4c-1.1-0.3-2.2-0.5-3.3-0.4h-2l-2.2,7.7
				h0.9c1.3,0.1,2.6-0.2,3.8-0.7c0.9-0.6,1.6-1.5,2.1-2.5h0.2c-0.1,0.3-2.1,7.3-2.1,7.3c0,0-0.1,0-0.2-0.1c0-0.2,0.1-1.1,0.1-1.1
				l-0.5-1.4l-1.3-0.8l-2-0.2h-1.1l-2,6.5l-0.3,1.3c0,0.3,0.2,0.5,0.4,0.7c0.6,0.3,1.2,0.4,1.8,0.3c1.6,0,3.2-0.3,4.6-1
				c1.5-0.7,2.8-1.8,3.9-3.1l0.2,0c-0.1,0.3-1.9,5-1.9,5l-15.8-0.1c0.1-0.1,0.1-0.3,0.1-0.3c0.7,0.1,1.4-0.1,1.9-0.5
				c0.6-0.7,1-1.6,1.2-2.5l3.5-12.3l0.3-1.7c0-0.4-0.2-0.7-0.5-1c-0.5-0.3-1.1-0.4-1.7-0.4L155.4,136.9z"/>
		</g>
		<g>
			<path class="st0" d="M177.5,142.9l-1.8,6c0.8-1.3,1.8-2.5,2.8-3.6c0.7-0.8,1.5-1.4,2.3-1.9c0.6-0.3,1.2-0.5,1.9-0.5
				c0.5,0,1,0.2,1.3,0.6c0.4,0.4,0.6,1,0.5,1.5c0,0.7-0.1,1.3-0.4,1.9l-1.9,5.9c-0.1,0.3-0.2,0.7-0.2,1c0,0.1,0,0.2,0.1,0.3
				c0,0.1,0.1,0.1,0.2,0.1c0.1,0,0.2,0,0.3-0.1c0.4-0.3,0.7-0.7,1-1.1c0.1-0.1,0.2-0.3,0.4-0.6l0.5,0.3c-1.4,2.3-2.8,3.4-4.4,3.4
				c-0.5,0-1-0.1-1.4-0.5c-0.3-0.3-0.5-0.7-0.5-1.1c0-0.6,0.2-1.2,0.4-1.8l1.9-6c0.1-0.3,0.2-0.6,0.2-0.9c0-0.1-0.1-0.2-0.1-0.3
				c-0.1-0.1-0.2-0.1-0.3-0.1c-0.5,0.1-1.1,0.3-1.4,0.7c-1.7,1.6-3.1,3.5-4.1,5.5l-1.2,4.2H170l2.7-9c0.2-0.6,0.3-1.3,0.4-1.9
				c0-0.1,0-0.3-0.1-0.4c-0.1-0.1-0.2-0.2-0.4-0.3c-0.3-0.1-0.7-0.1-1-0.1l0.2-0.5l4.9-0.8L177.5,142.9z"/>
			<path class="st0" d="M180.7,143.3c-0.9,0.5-1.7,1.2-2.4,2l-2.3,2.9l1.7-5.4h-1.1l-4.9,0.8l-0.3,0.6l-0.1,0.2l1.2,0.1l0.3,0.2
				l0.1,0.3l-0.4,1.9l-2.8,9.2h3.8l1.4-4.3c1-2,2.4-3.9,4.1-5.5c0.4-0.4,0.8-0.6,1.3-0.7c0.3,0.1,0.3,0.2,0.3,0.2l-0.2,0.8l-1.9,6
				l-0.4,1.8l0.6,1.3c0.4,0.3,1,0.5,1.5,0.5c1.6,0,3.1-1.2,4.5-3.5l-0.6-0.5c-0.2,0-0.6,0.6-0.6,0.6l-1,1.1h-0.3l-0.1-0.1l0.2-0.9
				l1.9-5.9l0.4-1.9c0-0.6-0.2-1.2-0.5-1.7c-0.4-0.4-0.9-0.6-1.4-0.6L180.7,143.3z M171.9,143.8l4.8-0.7h0.6
				c-0.1,0.4-1.7,5.8-1.7,5.8l0.3,0.2l2.8-3.6c0.7-0.7,1.4-1.4,2.3-1.9l1.8-0.5c0.5,0,0.9,0.2,1.2,0.5c0.3,0.4,0.5,0.9,0.5,1.4
				l-0.3,1.8l-1.9,5.9l-0.2,1.1l0.2,0.5h0.3l0.4-0.1l1-1.2l0.4-0.6l0.3,0.4c-1.4,2-2.8,3.1-4.3,3.1c-0.5,0-0.9-0.1-1.3-0.4l-0.4-1
				l0.4-1.7l1.9-6l0.2-0.9c0-0.2-0.1-0.3-0.2-0.4l-0.4-0.2c-0.6,0.1-1.1,0.3-1.5,0.8c-1.7,1.6-3.1,3.5-4.2,5.6l-1.2,4.2l-3.2-0.1
				c0.1-0.4,2.7-8.8,2.7-8.8l0.4-1.9l-0.2-0.5l-0.5-0.3l-0.9-0.1L171.9,143.8z"/>
		</g>
		<g>
			<path class="st0" d="M198.9,143.1l-2.8,9.4l-0.3,1.1c0,0.1,0,0.2,0,0.3c0,0.1,0,0.2,0.1,0.3c0.1,0.1,0.1,0.1,0.2,0.1
				c0.3-0.1,0.6-0.2,0.8-0.5c0.4-0.4,0.7-0.8,1-1.3l0.5,0.3c-0.5,1-1.2,1.9-2.1,2.6c-0.7,0.5-1.6,0.8-2.4,0.8
				c-0.4,0-0.9-0.1-1.2-0.4c-0.3-0.3-0.4-0.7-0.4-1c0.1-0.7,0.2-1.4,0.5-2.1l0.4-1.1c-0.8,1.5-1.9,2.8-3.1,4
				c-0.5,0.4-1.2,0.7-1.9,0.7c-0.8,0-1.5-0.4-1.9-1.1c-0.4-0.7-0.6-1.6-0.6-2.4c0.1-1.6,0.5-3.1,1.2-4.6c0.7-1.6,1.8-3,3.2-4.1
				c0.8-0.8,1.9-1.2,3.1-1.3c0.5,0,0.9,0.1,1.3,0.4c0.4,0.5,0.6,1.1,0.7,1.7l0.5-1.8L198.9,143.1z M194.4,145.8
				c0-0.6-0.1-1.1-0.3-1.6c-0.2-0.2-0.4-0.4-0.7-0.3c-0.3,0-0.7,0.2-0.9,0.4c-0.6,0.6-1.3,1.7-2,3.5c-0.7,1.4-1,3-1.1,4.6
				c0,0.4,0.1,0.8,0.2,1.1c0.1,0.2,0.3,0.3,0.5,0.3c0.5-0.1,1-0.3,1.3-0.7c0.7-0.8,1.2-1.6,1.7-2.5
				C193.8,149.1,194.3,147.5,194.4,145.8z"/>
			<path class="st0" d="M189.9,144.1c-1.4,1.1-2.5,2.6-3.3,4.2c-0.7,1.4-1.2,3-1.2,4.6c0,0.9,0.2,1.7,0.6,2.5c0.4,0.7,1.2,1.2,2,1.1
				c0.7,0,1.4-0.3,2-0.7c1-0.9,1.9-1.9,2.5-3.1c0,0,0,0,0,0.1l-0.5,2.1l0.5,1.2l1.3,0.5c0.9,0,1.8-0.3,2.5-0.9
				c0.9-0.7,1.7-1.7,2.2-2.7l-0.5-0.5c-0.2,0-1.2,1.3-1.2,1.3l-0.7,0.4c-0.1-0.1-0.1-0.2-0.2-0.3l0-0.3l0.3-1.1l2.8-9.6l-3.6,0.2
				c0,0-0.3,1-0.5,1.5c-0.1-0.5-0.3-1-0.6-1.4c-0.4-0.3-0.9-0.5-1.4-0.5C191.9,142.8,190.8,143.3,189.9,144.1z M186.3,155.2
				c-0.4-0.7-0.6-1.5-0.6-2.3c0.1-1.6,0.5-3.1,1.2-4.5c0.7-1.6,1.8-3,3.2-4.1c0.8-0.7,1.9-1.2,3-1.3c0.4,0,0.8,0.1,1.2,0.4
				c0.4,0.5,0.6,1,0.6,1.6h0.3l0.5-1.7l2.9-0.1c-0.1,0.4-2.7,9.2-2.7,9.2l-0.3,1.2l0,0.3l0.2,0.4l0.4,0.2l0.9-0.5l1-1.3l0.3,0.3
				c-0.6,0.9-1.3,1.7-2.2,2.4c-0.7,0.5-1.5,0.8-2.3,0.8l-1.1-0.4l-0.4-0.9l0.5-2l0.3-1.1l-0.3-0.1c-0.8,1.5-1.8,2.8-3.1,3.9
				c-0.5,0.4-1.1,0.6-1.8,0.6C187.4,156.2,186.7,155.9,186.3,155.2z"/>
			<path class="st0" d="M192.3,144.1c-0.6,0.6-1.3,1.8-2.1,3.6c-0.7,1.5-1,3-1.1,4.7l0.3,1.2c0.1,0.2,0.4,0.4,0.7,0.4
				c0.6,0,1.1-0.3,1.4-0.8l1.7-2.6c0.8-1.5,1.3-3.1,1.4-4.8c0-0.6-0.1-1.2-0.4-1.7c-0.2-0.3-0.5-0.4-0.8-0.4L192.3,144.1z
				 M189.7,153.4l-0.2-1c0.1-1.6,0.4-3.1,1.1-4.5c0.7-1.7,1.4-2.9,2-3.5l0.8-0.4c0.2,0,0.4,0.1,0.6,0.3c0.2,0.5,0.4,1,0.3,1.5
				c-0.1,1.6-0.5,3.2-1.3,4.6l-1.7,2.5c-0.3,0.4-0.7,0.6-1.2,0.7C189.9,153.6,189.7,153.5,189.7,153.4z"/>
		</g>
		<g>
			<path class="st0" d="M208.3,136.5l-2.5,8.5c0.5-0.6,1.1-1.2,1.8-1.6c0.5-0.3,1-0.4,1.5-0.4c1-0.1,1.9,0.4,2.4,1.2
				c0.5,0.8,0.8,1.8,0.8,2.8c0,2.5-1,5-2.7,6.8c-1.3,1.6-3.3,2.6-5.5,2.6c-1.7,0-3.3-0.5-4.8-1.4l4.4-14.9c0.2-0.5,0.3-1,0.4-1.5
				c0-0.2-0.1-0.4-0.3-0.6c-0.4-0.2-0.8-0.3-1.3-0.3l0.2-0.6l4.8-0.8H208.3z M202.8,155.2c0.3,0.2,0.7,0.4,1.2,0.4
				c0.4,0,0.8-0.1,1.2-0.3c0.7-0.5,1.2-1.1,1.6-1.7c0.6-0.9,1.1-2,1.4-3c0.4-1.1,0.6-2.3,0.6-3.6c0-0.5-0.1-1.1-0.4-1.5
				c-0.2-0.3-0.6-0.5-1-0.5c-0.7,0-1.3,0.4-1.6,1c-0.5,0.8-0.8,1.8-1,2.7L202.8,155.2z"/>
			<path class="st0" d="M207.4,136.3l-4.9,0.8l-0.3,0.7l-0.1,0.2l0.2,0l1.2,0.2c0.1,0.1,0.2,0.3,0.2,0.4l-0.3,1.4l-4.3,14.8
				c1.5,1,3.2,1.5,5,1.6c2.2,0,4.2-1,5.6-2.7c1.8-1.9,2.8-4.3,2.7-6.9c0-1-0.3-2-0.8-2.9c-0.6-0.8-1.5-1.3-2.5-1.3l-1.6,0.4
				l-1.4,1.2c0.3-1,2.4-8.1,2.4-8.1L207.4,136.3z M202.8,137.4l4.7-0.7h0.6c-0.1,0.4-2.6,8.8-2.6,8.8l2.2-2l1.5-0.4
				c0.9-0.1,1.8,0.4,2.3,1.1c0.5,0.8,0.8,1.7,0.8,2.7c0,2.5-1,4.9-2.7,6.7c-1.3,1.6-3.3,2.5-5.3,2.6c-1.7-0.1-3.3-0.5-4.7-1.4
				l4.5-14.6l0.4-1.5c0-0.3-0.1-0.6-0.4-0.7l-1.2-0.2C202.7,137.6,202.8,137.4,202.8,137.4L202.8,137.4z"/>
			<path class="st0" d="M205.6,145.8c-0.5,0.9-0.8,1.8-1,2.8l-2,6.7l0.1,0l1.3,0.4l1.3-0.3c0.7-0.5,1.2-1.1,1.7-1.8
				c0.6-1,1.1-2,1.4-3.1c0.4-1.2,0.6-2.4,0.6-3.6c0-0.6-0.1-1.2-0.5-1.6c-0.3-0.4-0.7-0.6-1.1-0.6
				C206.6,144.8,205.9,145.2,205.6,145.8z M204.9,148.7c0.2-0.9,0.5-1.8,1-2.7c0.3-0.5,0.9-0.9,1.5-0.9c0.3,0,0.6,0.2,0.8,0.5
				c0.3,0.4,0.4,0.9,0.4,1.4c0,1.2-0.2,2.4-0.6,3.5c-0.3,1.1-0.8,2.1-1.4,3c-0.4,0.7-0.9,1.2-1.6,1.7l-1.1,0.3l-1-0.4
				C203.1,154.8,204.9,148.7,204.9,148.7z"/>
		</g>
		<g>
			<path class="st0" d="M221.9,136.5l-4.8,16c-0.2,0.6-0.3,1.2-0.4,1.8c0,0.1,0,0.2,0.1,0.3c0.1,0.1,0.2,0.1,0.3,0.1
				c0.2,0,0.4-0.1,0.5-0.2c0.6-0.5,1.1-1.1,1.5-1.8l0.5,0.2c-0.7,1.1-1.6,2.1-2.6,2.9c-0.6,0.4-1.2,0.6-1.9,0.6
				c-0.5,0-1.1-0.1-1.5-0.5c-0.3-0.3-0.5-0.8-0.5-1.2c0-0.6,0.2-1.1,0.3-1.7l3.9-13c0.2-0.5,0.3-0.9,0.3-1.4c0-0.2-0.1-0.4-0.3-0.5
				c-0.4-0.2-0.8-0.3-1.3-0.2l0.2-0.5l4.9-0.8H221.9z"/>
			<path class="st0" d="M221.1,136.3l-4.9,0.8l-0.3,0.6l-0.1,0.2l0.2,0l1.2,0.2c0.1,0.1,0.2,0.2,0.2,0.4l-0.3,1.4l-3.9,13l-0.4,1.7
				c0,0.5,0.2,1,0.6,1.3c0.4,0.4,1,0.6,1.6,0.5c0.7,0,1.4-0.2,2-0.6c1.1-0.8,2-1.8,2.7-3l0.1-0.2l-0.7-0.3c-0.6,0.6-1.2,1.1-1.7,1.8
				l-0.4,0.2c-0.1-0.1-0.2-0.1-0.2-0.2l0.4-1.7l4.9-16.2L221.1,136.3z M216.3,137.4l4.7-0.7h0.6c-0.1,0.4-4.8,15.7-4.8,15.7
				l-0.4,1.8l0.2,0.4l0.4,0.2l0.6-0.2l1.6-1.8c0.1,0.1,0.1,0.1,0.2,0.2c-0.7,1.1-1.5,2-2.5,2.7c-0.5,0.4-1.2,0.6-1.8,0.6
				c-0.5,0-1-0.1-1.4-0.5c-0.3-0.3-0.5-0.7-0.5-1.1l0.3-1.6l3.9-13l0.3-1.5c0-0.3-0.1-0.5-0.4-0.7l-1.2-0.2
				C216.3,137.6,216.3,137.4,216.3,137.4L216.3,137.4z"/>
		</g>
		<g>
			<path class="st0" d="M227.7,142.9l-3.1,9.9c-0.1,0.4-0.2,0.7-0.3,1.1c0,0.1,0,0.2,0.1,0.3c0.1,0.1,0.2,0.1,0.3,0.1
				c0.2,0,0.3-0.1,0.5-0.2c0.6-0.6,1.1-1.2,1.5-2l0.5,0.3c-1.4,2.5-2.9,3.8-4.5,3.8c-0.5,0-1.1-0.2-1.5-0.5
				c-0.4-0.3-0.5-0.8-0.5-1.3c0-0.5,0.1-0.9,0.3-1.3l2.2-6.7c0.2-0.5,0.3-1,0.3-1.5c0-0.2-0.1-0.4-0.3-0.6c-0.2-0.2-0.5-0.2-0.8-0.2
				c-0.2,0-0.3,0-0.6,0l0.2-0.6l4.9-0.8L227.7,142.9z M226.5,136.5c0.6,0,1.1,0.2,1.5,0.6c0.8,0.8,0.8,2.1,0,2.9
				c-0.4,0.4-0.9,0.6-1.4,0.6c-0.6,0-1.1-0.2-1.4-0.6c-0.4-0.4-0.6-0.9-0.6-1.5C224.4,137.4,225.3,136.5,226.5,136.5L226.5,136.5z"
				/>
			<path class="st0" d="M226.8,142.8l-5,0.8l-0.3,0.7l-0.1,0.2h0.8l0.6,0.2c0.1,0.1,0.2,0.3,0.2,0.4l-0.3,1.4l-2.2,6.7l-0.3,1.4
				c0,0.5,0.2,1.1,0.6,1.4c0.4,0.4,1,0.6,1.6,0.6c1.6,0,3.2-1.3,4.7-3.9l-0.5-0.5c-0.6,0.6-1.2,1.3-1.7,2l-0.4,0.2
				c-0.1-0.1-0.2-0.2-0.2-0.3l0.3-1.1l3.2-10.1L226.8,142.8z M222,143.8l4.8-0.6h0.6l-3.1,9.7l-0.3,1.2l0.2,0.4l0.4,0.2l0.6-0.3
				l1.5-2l0.3,0.3c-1.5,2.3-2.9,3.5-4.5,3.5c-0.5,0-1-0.1-1.4-0.5c-0.3-0.3-0.5-0.7-0.5-1.2l0.2-1.3l2.1-6.7l0.3-1.5
				c0-0.3-0.1-0.5-0.3-0.7l-0.9-0.3h-0.3C222,144,222,143.8,222,143.8L222,143.8z"/>
			<path class="st0" d="M224.9,136.9c-0.4,0.4-0.7,1-0.6,1.6c0,0.6,0.2,1.2,0.6,1.6c0.4,0.4,1,0.6,1.6,0.6c0.6,0,1.2-0.2,1.6-0.6
				c0.4-0.4,0.6-1,0.6-1.6c0-0.6-0.2-1.2-0.6-1.6c-0.4-0.4-1-0.6-1.6-0.6C225.9,136.3,225.3,136.5,224.9,136.9z M225.2,139.9
				c-0.4-0.3-0.6-0.8-0.6-1.3c0-0.5,0.2-1,0.5-1.4c0.7-0.7,1.9-0.7,2.7,0c0.4,0.4,0.6,0.8,0.6,1.4c0,0.5-0.2,1-0.6,1.3
				c-0.3,0.4-0.8,0.6-1.3,0.6C226,140.5,225.5,140.3,225.2,139.9L225.2,139.9z"/>
		</g>
		<g>
			<path class="st0" d="M235.2,142.9l-1.8,6c0.9-1.3,1.8-2.5,2.8-3.6c0.7-0.8,1.5-1.4,2.3-1.9c0.6-0.3,1.2-0.5,1.9-0.5
				c0.5,0,1,0.2,1.3,0.6c0.4,0.4,0.6,1,0.5,1.5c0,0.7-0.1,1.3-0.3,1.9l-1.9,5.9c-0.1,0.3-0.2,0.7-0.2,1c0,0.1,0,0.2,0.1,0.3
				c0.1,0.1,0.1,0.1,0.2,0.1c0.1,0,0.2,0,0.3-0.1c0.4-0.3,0.7-0.7,1-1.1c0.1-0.1,0.2-0.3,0.4-0.6l0.5,0.3c-1.4,2.3-2.8,3.4-4.4,3.4
				c-0.5,0-1-0.1-1.4-0.5c-0.3-0.3-0.5-0.7-0.5-1.1c0-0.6,0.2-1.2,0.4-1.8l1.9-6c0.1-0.3,0.2-0.6,0.2-0.9c0-0.1-0.1-0.2-0.1-0.3
				c-0.1-0.1-0.2-0.1-0.3-0.1c-0.5,0.1-1,0.3-1.4,0.7c-1.7,1.6-3.1,3.5-4.1,5.5l-1.2,4.2h-3.6l2.7-9c0.2-0.6,0.3-1.3,0.4-1.9
				c0-0.1,0-0.3-0.1-0.4c-0.1-0.1-0.2-0.2-0.4-0.3c-0.3-0.1-0.7-0.1-1-0.1l0.1-0.5l4.9-0.8L235.2,142.9z"/>
			<path class="st0" d="M238.5,143.3c-0.9,0.5-1.7,1.2-2.4,2c0,0-1.5,1.9-2.3,2.9c0.4-1.3,1.6-5.4,1.6-5.4h-1.1l-4.9,0.8l-0.3,0.6
				l-0.1,0.2l1.2,0.1l0.3,0.2l0.1,0.3l-0.4,1.9l-2.8,9.2h3.8l1.4-4.3c1-2,2.4-3.9,4.1-5.5c0.3-0.4,0.8-0.6,1.3-0.7
				c0.3,0.1,0.3,0.2,0.3,0.2l-0.2,0.8l-1.9,6l-0.4,1.8c0,0.5,0.2,0.9,0.6,1.3c0.4,0.3,0.9,0.5,1.5,0.5c1.6,0,3.1-1.2,4.5-3.5
				l-0.6-0.5c-0.2,0-0.6,0.6-0.6,0.6l-1,1.1H240l-0.1-0.1l0.2-0.9l1.9-5.9l0.4-1.9c0-0.6-0.2-1.2-0.6-1.6c-0.4-0.4-0.9-0.6-1.5-0.6
				L238.5,143.3z M229.6,143.8l4.7-0.7h0.6c-0.1,0.4-1.7,5.8-1.7,5.8l0.3,0.2l2.8-3.6c0.7-0.8,1.4-1.4,2.3-1.9l1.8-0.5
				c0.5,0,0.9,0.2,1.2,0.5c0.3,0.4,0.5,0.9,0.5,1.4l-0.3,1.8l-1.9,5.9l-0.2,1.1l0.2,0.5h0.3l0.4-0.1l1.1-1.2l0.4-0.6l0.3,0.4
				c-1.4,2-2.8,3.1-4.3,3.1c-0.5,0-0.9-0.1-1.3-0.4c-0.3-0.3-0.5-0.6-0.4-1l0.4-1.7l1.9-6l0.2-0.9c0-0.2-0.1-0.3-0.2-0.4l-0.4-0.2
				c-0.6,0.1-1.1,0.3-1.5,0.8c-1.7,1.6-3.1,3.5-4.2,5.6l-1.2,4.2l-3.2-0.1c0.1-0.4,2.7-8.8,2.7-8.8l0.4-1.9l-0.2-0.5l-0.5-0.3
				l-0.9-0.1L229.6,143.8z"/>
		</g>
		<g>
			<path class="st0" d="M253.9,143.8h3.7l-0.4,1.5h-1.9c0.3,0.5,0.4,1,0.5,1.6c0,0.8-0.2,1.7-0.7,2.4c-0.5,0.8-1.2,1.4-2.1,1.7
				c-0.9,0.4-2,0.7-3,0.6c-0.3,0-0.7,0-1-0.1c-0.3,0-0.7-0.1-1.1-0.2c-0.4,0.2-0.8,0.4-1.2,0.8c-0.1,0.1-0.2,0.3-0.2,0.4
				c0,0.2,0.1,0.3,0.2,0.4c0.3,0.3,0.7,0.4,1.1,0.5c1.3,0.2,2.5,0.6,3.8,1c0.7,0.3,1.4,0.7,1.9,1.3c0.4,0.6,0.7,1.3,0.6,2
				c0,1.2-0.6,2.4-1.6,3.1c-1.1,0.9-2.8,1.3-5,1.3c-2.2,0-4-0.4-5-1.1c-0.7-0.4-1.1-1.1-1.2-1.9c0-0.6,0.3-1.2,0.8-1.6
				c0.5-0.5,1.6-0.9,3.3-1.3c-0.4-0.2-0.8-0.5-1.2-0.9c-0.3-0.3-0.4-0.7-0.4-1.1c0-0.6,0.3-1.2,0.8-1.7c0.8-0.6,1.6-1.1,2.5-1.4
				c-0.8-0.3-1.5-0.8-2-1.4c-0.4-0.6-0.7-1.3-0.6-2c0-0.8,0.3-1.6,0.8-2.3c0.5-0.8,1.3-1.4,2.2-1.8c1-0.5,2.2-0.7,3.3-0.7
				c0.7,0,1.4,0.1,2.1,0.3C253.2,143.4,253.6,143.6,253.9,143.8z M246.1,156.6c-0.7,0.2-1.3,0.6-1.8,1.1c-0.3,0.4-0.5,0.8-0.5,1.3
				c0,0.7,0.4,1.3,1,1.7c0.9,0.6,2,0.8,3.1,0.7c0.9,0.1,1.8-0.1,2.5-0.6c0.5-0.4,0.8-0.9,0.8-1.5c0-0.5-0.3-1-0.7-1.2
				c-0.9-0.5-1.8-0.8-2.8-1C247,156.9,246.5,156.7,246.1,156.6z M251,143.6c-0.4,0-0.9,0.1-1.2,0.5c-0.6,0.7-1.1,1.4-1.3,2.3
				c-0.4,1-0.5,2-0.6,3.1c0,0.4,0.1,0.8,0.4,1.1c0.3,0.3,0.6,0.4,1,0.4c0.4,0,0.7-0.1,1-0.4c0.7-0.7,1.1-1.5,1.4-2.5
				c0.4-1,0.6-2,0.6-3.1c0-0.4-0.1-0.7-0.4-1C251.7,143.8,251.3,143.6,251,143.6L251,143.6z"/>
			<path class="st0" d="M247.3,143.5c-0.9,0.4-1.7,1-2.2,1.8c-0.5,0.7-0.8,1.5-0.8,2.4c0,0.8,0.2,1.5,0.6,2.1c0.5,0.6,1.1,1,1.8,1.3
				c-0.8,0.3-1.6,0.8-2.3,1.3c-0.5,0.5-0.8,1.1-0.8,1.8l0.4,1.2l0.9,0.7c-1.5,0.4-2.5,0.8-3.1,1.2c-0.5,0.4-0.8,1.1-0.8,1.7
				c0,0.9,0.5,1.6,1.2,2.1c1.1,0.8,2.8,1.2,5.1,1.2s4-0.5,5.1-1.3c1-0.8,1.7-1.9,1.7-3.2c0-0.7-0.2-1.5-0.7-2.1
				c-0.5-0.6-1.2-1.1-1.9-1.4l-3.8-1l-1-0.4l-0.1-0.3l0.1-0.3l1.1-0.7l1,0.2l1,0.1c1.1,0,2.1-0.2,3.1-0.6c0.9-0.4,1.6-1,2.1-1.8
				c0.5-0.7,0.7-1.6,0.7-2.5c0,0-0.3-1.1-0.4-1.4h1.7l0.6-1.7l0.1-0.2h-3.9l-1.1-0.6l-2.2-0.3C249.5,142.8,248.3,143,247.3,143.5z
				 M242.5,160.9c-0.7-0.4-1.1-1.1-1.1-1.8c0-0.6,0.3-1.1,0.7-1.5c0.5-0.5,1.6-0.9,3.2-1.3l0.4-0.1l-1.4-1l-0.4-1
				c0-0.6,0.3-1.2,0.7-1.5c0.7-0.6,1.6-1.1,2.5-1.4l0.4-0.2l-0.4-0.2c-0.8-0.3-1.4-0.7-1.9-1.4c-0.4-0.6-0.6-1.2-0.6-1.9
				c0-0.8,0.3-1.6,0.7-2.2c0.5-0.8,1.3-1.4,2.1-1.7c1-0.5,2.1-0.7,3.2-0.7l2.1,0.2l1.1,0.6h0.1h3.5l-0.4,1.3l-1.8-0.1H255l0.5,1.7
				c0,0.8-0.2,1.6-0.6,2.3c-0.5,0.7-1.2,1.3-2,1.7c-0.9,0.4-1.9,0.7-2.9,0.6l-1-0.1l-1.1-0.2c-0.1,0-1.3,0.8-1.3,0.8l-0.2,0.5
				l0.3,0.6l1.2,0.5l3.7,1c0.7,0.3,1.3,0.7,1.8,1.3c0.4,0.5,0.6,1.2,0.6,1.9c0,1.2-0.6,2.3-1.6,3c-1,0.8-2.7,1.3-4.9,1.3
				C245.3,162,243.6,161.7,242.5,160.9z"/>
			<path class="st0" d="M246.1,156.4c-0.7,0.2-1.4,0.6-1.9,1.2l-0.5,1.4c0,0.7,0.4,1.4,1,1.8c1,0.6,2.1,0.9,3.2,0.8
				c0.9,0.1,1.9-0.2,2.6-0.7c0.5-0.4,0.8-1,0.9-1.6c0-0.6-0.3-1.1-0.8-1.4c-0.9-0.5-1.8-0.8-2.8-1L246.1,156.4L246.1,156.4z
				 M244.9,160.5c-0.5-0.3-0.9-0.9-0.9-1.5l0.5-1.2c0.5-0.5,1.1-0.8,1.7-1.1l1.5,0.4c0.9,0.2,1.9,0.5,2.7,1c0.4,0.2,0.6,0.6,0.6,1.1
				c0,0.5-0.3,1.1-0.7,1.4c-0.7,0.5-1.6,0.7-2.4,0.6C246.8,161.4,245.8,161.1,244.9,160.5z"/>
			<path class="st0" d="M249.7,144c-0.6,0.7-1.1,1.5-1.4,2.4c-0.4,1-0.6,2.1-0.6,3.1l0.5,1.2l1.1,0.5l1.1-0.4
				c0.7-0.7,1.1-1.6,1.4-2.5c0.4-1,0.6-2.1,0.6-3.1l-0.4-1.1l-1-0.4L249.7,144z M248.4,150.4l-0.3-1c0-1,0.2-2,0.5-3
				c0.3-0.8,0.7-1.6,1.3-2.2l1-0.4l0.8,0.3l0.3,0.9c0,1-0.2,2-0.6,3c-0.3,0.9-0.7,1.7-1.3,2.4l-0.9,0.3L248.4,150.4z"/>
		</g>
		<g>
			<path class="st0" d="M277,143.1l-2.8,9.4l-0.3,1.1c0,0.1,0,0.2,0,0.3c0,0.2,0.2,0.4,0.4,0.4c0.3-0.1,0.6-0.2,0.8-0.5
				c0.4-0.4,0.7-0.8,1-1.3l0.5,0.3c-0.5,1-1.2,1.9-2.1,2.6c-0.7,0.5-1.6,0.8-2.4,0.8c-0.4,0-0.9-0.1-1.2-0.4c-0.3-0.3-0.4-0.7-0.4-1
				c0.1-0.7,0.2-1.4,0.5-2.1l0.3-1.1c-0.8,1.5-1.9,2.8-3.1,4c-0.5,0.4-1.2,0.7-1.9,0.7c-0.8,0-1.5-0.4-1.9-1.1
				c-0.4-0.7-0.6-1.6-0.6-2.4c0.1-1.6,0.5-3.1,1.2-4.6c0.7-1.6,1.8-3,3.2-4.1c0.8-0.8,1.9-1.2,3.1-1.3c0.5,0,0.9,0.1,1.3,0.4
				c0.4,0.5,0.6,1.1,0.7,1.7l0.5-1.8L277,143.1z M272.5,145.8c0-0.6-0.1-1.1-0.4-1.6c-0.2-0.2-0.4-0.4-0.7-0.3
				c-0.3,0-0.7,0.2-0.9,0.4c-0.6,0.6-1.3,1.7-2,3.5c-0.7,1.4-1,3-1.1,4.6c0,0.4,0.1,0.8,0.2,1.1c0.1,0.2,0.3,0.3,0.5,0.3
				c0.5-0.1,1-0.3,1.3-0.7c0.7-0.8,1.2-1.6,1.7-2.5C271.9,149.1,272.4,147.5,272.5,145.8L272.5,145.8z"/>
			<path class="st0" d="M268,144.1c-1.4,1.1-2.5,2.6-3.2,4.2c-0.8,1.4-1.2,3-1.3,4.6c0,0.9,0.2,1.7,0.6,2.5c0.4,0.7,1.2,1.2,2,1.1
				c0.7,0,1.4-0.3,2-0.7c1-0.9,1.9-1.9,2.5-3.1c0,0,0,0,0,0.1l-0.5,2.1l0.5,1.2l1.3,0.5c0.9,0,1.8-0.3,2.5-0.9
				c0.9-0.7,1.7-1.7,2.2-2.7l-0.5-0.5c-0.4,0.4-0.9,0.8-1.2,1.3l-0.7,0.4c-0.1-0.1-0.2-0.2-0.2-0.3l0-0.3l0.3-1.1l2.8-9.6l-3.6,0.2
				c0,0-0.3,1-0.5,1.5c-0.1-0.5-0.3-1-0.6-1.4c-0.4-0.3-0.9-0.5-1.4-0.5C270,142.8,268.9,143.3,268,144.1z M264.4,155.2
				c-0.4-0.7-0.6-1.5-0.6-2.3c0.1-1.6,0.5-3.1,1.2-4.5c0.7-1.6,1.8-3,3.2-4.1c0.8-0.7,1.9-1.2,3-1.3c0.4,0,0.8,0.1,1.2,0.4
				c0.4,0.5,0.6,1,0.6,1.6h0.3l0.5-1.7l2.9-0.1c-0.1,0.4-2.7,9.2-2.7,9.2l-0.3,1.2l-0.1,0.3l0.2,0.4l0.4,0.2l0.9-0.5l1-1.3l0.3,0.3
				c-0.6,0.9-1.3,1.7-2.2,2.4c-0.7,0.5-1.5,0.8-2.3,0.8l-1.1-0.4l-0.4-0.9l0.5-2l0.4-1.1l-0.3-0.1c-0.8,1.5-1.8,2.8-3.1,3.9
				c-0.5,0.4-1.1,0.6-1.8,0.6C265.4,156.3,264.7,155.9,264.4,155.2z"/>
			<path class="st0" d="M270.4,144.1c-0.6,0.6-1.3,1.8-2.1,3.6c-0.7,1.5-1,3-1.1,4.7l0.3,1.2c0.1,0.2,0.4,0.4,0.7,0.4
				c0.6,0,1.1-0.3,1.4-0.8l1.7-2.6c0.8-1.5,1.3-3.1,1.4-4.8c0-0.6-0.1-1.2-0.4-1.7c-0.2-0.3-0.5-0.4-0.8-0.4L270.4,144.1z
				 M267.7,153.4l-0.2-1c0.1-1.6,0.4-3.1,1.1-4.5c0.7-1.7,1.4-2.9,2-3.5l0.8-0.4c0.2,0,0.4,0.1,0.6,0.3c0.3,0.5,0.4,1,0.3,1.5
				c-0.1,1.6-0.5,3.2-1.3,4.6l-1.6,2.5c-0.3,0.4-0.7,0.6-1.2,0.7C268,153.6,267.8,153.5,267.7,153.4L267.7,153.4z"/>
		</g>
		<g>
			<path class="st0" d="M284.8,142.9l-1.8,6c0.8-1.3,1.8-2.5,2.8-3.6c0.7-0.8,1.5-1.4,2.3-1.9c0.6-0.3,1.2-0.5,1.8-0.5
				c0.5,0,1,0.2,1.3,0.6c0.4,0.4,0.6,1,0.5,1.5c0,0.7-0.1,1.3-0.4,1.9l-1.9,5.9c-0.1,0.3-0.2,0.7-0.2,1c0,0.1,0,0.2,0.1,0.3
				c0.1,0.1,0.1,0.1,0.2,0.1c0.1,0,0.2,0,0.3-0.1c0.4-0.3,0.7-0.7,1-1.1c0.1-0.1,0.2-0.3,0.4-0.6l0.5,0.3c-1.4,2.3-2.8,3.4-4.4,3.4
				c-0.5,0-1-0.1-1.4-0.5c-0.3-0.3-0.5-0.7-0.5-1.1c0-0.6,0.2-1.2,0.4-1.8l1.9-6c0.1-0.3,0.2-0.6,0.2-0.9c0-0.1-0.1-0.2-0.1-0.3
				c-0.1-0.1-0.2-0.1-0.3-0.1c-0.5,0.1-1,0.3-1.4,0.7c-1.7,1.6-3.1,3.5-4.1,5.5l-1.2,4.2h-3.6l2.7-9c0.2-0.6,0.3-1.3,0.4-1.9
				c0-0.1,0-0.3-0.1-0.4c-0.1-0.1-0.2-0.2-0.4-0.3c-0.3-0.1-0.7-0.1-1-0.1l0.1-0.5l4.9-0.8L284.8,142.9z"/>
			<path class="st0" d="M288,143.3c-0.9,0.5-1.7,1.2-2.4,2c0,0-1.4,1.9-2.2,2.9c0.4-1.3,1.6-5.4,1.6-5.4h-1.1l-4.9,0.8l-0.3,0.6
				l-0.1,0.2l1.2,0.1l0.3,0.2l0.1,0.3l-0.4,1.9l-2.8,9.2h3.8l1.4-4.3c1-2,2.4-3.9,4.1-5.5c0.3-0.4,0.8-0.6,1.3-0.7
				c0.3,0.1,0.3,0.2,0.3,0.2l-0.2,0.8l-1.9,6l-0.4,1.8c0,0.5,0.2,1,0.6,1.3c0.4,0.3,1,0.5,1.5,0.5c1.6,0,3.1-1.2,4.5-3.5l-0.6-0.5
				c-0.2,0-0.6,0.6-0.6,0.6l-1,1.1h-0.3l-0.1-0.1l0.2-0.9l1.9-5.9l0.4-1.9c0-0.6-0.2-1.2-0.6-1.6c-0.4-0.4-0.9-0.6-1.4-0.6
				L288,143.3z M279.2,143.8l4.7-0.7h0.6c-0.1,0.4-1.7,5.8-1.7,5.8l0.3,0.2l2.8-3.6c0.7-0.7,1.4-1.4,2.3-1.9l1.8-0.5
				c0.5,0,0.9,0.2,1.2,0.5c0.3,0.4,0.5,0.9,0.5,1.4l-0.4,1.8l-1.9,5.9l-0.3,1.1l0.2,0.5h0.3l0.4-0.1l1.1-1.2l0.4-0.6l0.3,0.4
				c-1.4,2-2.8,3.1-4.3,3.1c-0.5,0-0.9-0.1-1.3-0.4c-0.3-0.3-0.4-0.6-0.4-1l0.4-1.7l1.9-6l0.2-0.9c0-0.2-0.1-0.3-0.2-0.4l-0.4-0.2
				c-0.6,0.1-1.1,0.3-1.5,0.8c-1.7,1.6-3.1,3.5-4.2,5.6l-1.2,4.2l-3.2-0.1c0.1-0.4,2.7-8.8,2.7-8.8l0.4-1.9l-0.2-0.5l-0.5-0.3
				l-0.9-0.1C279.1,144,279.2,143.8,279.2,143.8L279.2,143.8z"/>
		</g>
		<g>
			<path class="st0" d="M302.9,137.4l0.1-0.5h9.3l-0.2,0.5c-0.7,0-1.4,0.2-1.9,0.6c-0.6,0.7-1,1.5-1.2,2.4l-3.5,12.2
				c-0.2,0.6-0.3,1.1-0.4,1.7c0,0.3,0.1,0.6,0.4,0.8c0.6,0.3,1.2,0.4,1.9,0.4l-0.1,0.5h-9.5l0.2-0.5c0.7,0.1,1.5-0.1,2.1-0.5
				c0.6-0.7,1-1.5,1.2-2.4l3.5-12.2c0.2-0.6,0.3-1.1,0.3-1.7c0-0.3-0.1-0.6-0.4-0.8C304.1,137.5,303.5,137.4,302.9,137.4z"/>
			<path class="st0" d="M303,136.7l-0.3,0.6l-0.1,0.2h0.2c0.6,0,1.2,0.1,1.8,0.4c0.2,0.2,0.3,0.4,0.3,0.7l-0.3,1.7l-3.5,12.2
				c-0.2,0.8-0.6,1.6-1.1,2.3c-0.6,0.4-1.3,0.6-2,0.5l-0.3,0.6l-0.1,0.2h9.7l0.3-0.6l0.1-0.2h-0.2c-0.6,0-1.3-0.1-1.8-0.4
				c-0.2-0.2-0.3-0.4-0.3-0.6l0.4-1.7l3.5-12.2c0.2-0.8,0.5-1.6,1.1-2.3c0.5-0.4,1.2-0.6,1.8-0.5l0.3-0.6l0.1-0.2L303,136.7z
				 M303.2,136.9l8.9,0.1l-0.1,0.3c-0.7-0.1-1.4,0.1-1.9,0.5c-0.6,0.7-1.1,1.5-1.2,2.4l-3.5,12.2l-0.4,1.8c0,0.4,0.2,0.7,0.5,0.9
				c0.6,0.3,1.2,0.4,1.8,0.4c-0.1,0.2-0.1,0.4-0.1,0.4s-8.7-0.1-9.1-0.1c0-0.1,0.1-0.3,0.1-0.3c0.7,0.1,1.4,0,2-0.5
				c0.5-0.4,0.9-1.2,1.2-2.5l3.5-12.2l0.3-1.8c0-0.4-0.2-0.7-0.5-1c-0.5-0.3-1.2-0.4-1.8-0.4L303.2,136.9z"/>
		</g>
		<g>
			<path class="st0" d="M317.3,142.9l-1.8,6c0.8-1.3,1.8-2.5,2.8-3.6c0.7-0.8,1.5-1.4,2.3-1.9c0.6-0.3,1.2-0.5,1.8-0.5
				c0.5,0,1,0.2,1.3,0.6c0.4,0.4,0.6,1,0.5,1.5c0,0.7-0.1,1.3-0.4,1.9l-1.9,5.9c-0.1,0.3-0.2,0.7-0.2,1c0,0.1,0,0.2,0.1,0.3
				c0.1,0.1,0.1,0.1,0.2,0.1c0.1,0,0.2,0,0.3-0.1c0.4-0.3,0.7-0.7,1-1.1c0.1-0.1,0.2-0.3,0.4-0.6l0.5,0.3c-1.4,2.3-2.9,3.4-4.4,3.4
				c-0.5,0-1-0.1-1.4-0.5c-0.3-0.3-0.5-0.7-0.5-1.1c0-0.6,0.2-1.2,0.4-1.8l1.9-6c0.1-0.3,0.2-0.6,0.2-0.9c0-0.1-0.1-0.2-0.1-0.3
				c-0.1-0.1-0.2-0.1-0.3-0.1c-0.5,0.1-1.1,0.3-1.4,0.7c-1.7,1.6-3.1,3.5-4.1,5.5l-1.2,4.2h-3.6l2.7-9c0.2-0.6,0.3-1.3,0.4-1.9
				c0-0.1,0-0.3-0.1-0.4c-0.1-0.1-0.2-0.2-0.4-0.3c-0.3-0.1-0.7-0.1-1-0.1l0.2-0.5l4.9-0.9H317.3z"/>
			<path class="st0" d="M320.6,143.3c-0.9,0.5-1.7,1.2-2.4,2c0,0-1.4,1.9-2.3,2.9c0.4-1.3,1.6-5.4,1.6-5.4h-1.1l-4.9,0.8l-0.3,0.6
				l-0.1,0.2l1.2,0.1l0.3,0.2l0.1,0.3l-0.4,1.9l-2.8,9.2h3.8l1.4-4.3c1-2,2.4-3.9,4.1-5.5c0.3-0.4,0.8-0.6,1.3-0.7
				c0.3,0.1,0.3,0.2,0.3,0.2l-0.2,0.8l-1.9,6l-0.4,1.8l0.6,1.3c0.4,0.3,1,0.5,1.5,0.5c1.6,0,3.1-1.2,4.5-3.5l-0.6-0.5
				c-0.2,0-0.6,0.6-0.6,0.6l-1,1.1H322l-0.1-0.1l0.2-0.9l1.9-5.9l0.4-1.9c0-0.6-0.2-1.2-0.6-1.6c-0.4-0.4-0.9-0.6-1.5-0.6
				L320.6,143.3z M311.7,143.8l4.7-0.7h0.6c-0.1,0.4-1.7,5.8-1.7,5.8l0.3,0.2l2.8-3.6c0.7-0.7,1.4-1.4,2.3-1.9l1.8-0.5
				c0.5,0,0.9,0.2,1.2,0.5c0.3,0.4,0.5,0.9,0.5,1.4l-0.4,1.8l-1.9,5.9l-0.2,1.1l0.2,0.5h0.3l0.4-0.1l1.1-1.2l0.4-0.6l0.3,0.4
				c-1.4,2-2.8,3.1-4.3,3.1c-0.5,0-0.9-0.1-1.3-0.4l-0.5-1l0.4-1.7l1.9-6l0.2-0.9c0-0.2-0.1-0.3-0.2-0.4l-0.4-0.2
				c-0.6,0.1-1.1,0.3-1.5,0.8c-1.7,1.6-3.1,3.5-4.1,5.6l-1.2,4.2l-3.2-0.1c0.1-0.4,2.7-8.8,2.7-8.8l0.4-1.9l-0.1-0.5l-0.5-0.3
				l-0.9-0.1C311.7,144,311.7,143.8,311.7,143.8L311.7,143.8z"/>
		</g>
		<g>
			<path class="st0" d="M333.4,139.5l-1.2,3.8h1.6l-0.5,1.6h-1.6l-2.5,8.3c-0.1,0.4-0.2,0.8-0.2,1.2c0,0.1,0.1,0.2,0.1,0.2
				c0.1,0.1,0.2,0.1,0.3,0.1c0.2,0,0.4-0.1,0.5-0.2c0.6-0.5,1.1-1.1,1.5-1.7l0.5,0.3c-0.5,1-1.2,1.8-2.1,2.5
				c-0.7,0.5-1.5,0.8-2.3,0.8c-0.5,0-1.1-0.1-1.5-0.5c-0.3-0.3-0.5-0.8-0.5-1.2c0-0.7,0.2-1.4,0.4-2.1l2.4-7.6h-1.8l0.3-1
				c1.1-0.4,2.1-0.9,3-1.5c1.1-0.8,2.1-1.8,3-2.9L333.4,139.5z"/>
			<path class="st0" d="M332.7,139.3c-1,1.1-2,2-3.1,2.9l-2.9,1.5l-0.4,1.2l-0.1,0.2h1.8c-0.1,0.4-2.3,7.4-2.3,7.4l-0.4,2.2
				c0,0.5,0.2,1,0.6,1.3c0.4,0.4,1,0.6,1.6,0.5c0.9,0,1.7-0.3,2.4-0.8c0.9-0.7,1.7-1.5,2.2-2.5l-0.5-0.5c-0.6,0.5-1.2,1.1-1.7,1.7
				l-0.4,0.2c-0.2-0.1-0.2-0.2-0.2-0.2l0.2-1.1l2.5-8.3l1.4,0.1l0.6-1.7l0.1-0.2h-1.6c0.1-0.4,1.2-3.8,1.2-3.8L332.7,139.3z
				 M329.7,142.5c1.1-0.8,2.2-1.8,3.1-2.9l0.4,0l-1.2,3.8h1.6l-0.4,1.4l-1.4-0.1l-2.7,8.4l-0.2,1.2c0,0.1,0.1,0.3,0.2,0.4l0.4,0.2
				l0.6-0.2l1.5-1.7l0.3,0.3c-0.6,0.8-1.3,1.6-2.1,2.2c-0.6,0.5-1.4,0.7-2.2,0.8c-0.5,0-1-0.1-1.4-0.4c-0.3-0.3-0.5-0.7-0.5-1.1
				l0.4-2l2.5-7.8h-1.8c0.1-0.2,0.2-0.8,0.2-0.8L329.7,142.5L329.7,142.5z"/>
		</g>
		<g>
			<path class="st0" d="M336.7,150.7c-0.1,0.5-0.1,1-0.1,1.5c0,0.6,0.2,1.2,0.6,1.7c0.4,0.4,1,0.7,1.6,0.6c0.7,0,1.4-0.2,2-0.4
				c0.8-0.4,1.6-0.9,2.3-1.5l0.4,0.4c-0.9,1.1-2,1.9-3.2,2.6c-1.1,0.5-2.2,0.8-3.4,0.8c-1.6,0-2.7-0.4-3.3-1.1
				c-0.6-0.7-0.9-1.7-0.9-2.6c0-1.6,0.5-3.2,1.3-4.6c0.9-1.5,2.1-2.8,3.7-3.7c1.4-0.9,3-1.4,4.7-1.4c0.6,0,1.3,0.2,1.8,0.6
				c0.4,0.4,0.6,0.9,0.6,1.4c0,0.7-0.2,1.4-0.6,2c-0.5,0.9-1.2,1.6-2.1,2.1c-0.9,0.6-1.8,1-2.8,1.3
				C338.6,150.5,337.7,150.7,336.7,150.7z M336.9,150c0.7-0.1,1.3-0.2,1.9-0.5c0.5-0.2,1-0.6,1.3-1c0.5-0.5,0.9-1.1,1.1-1.8
				c0.3-0.6,0.5-1.3,0.5-2c0-0.2-0.1-0.5-0.2-0.6c-0.1-0.2-0.4-0.2-0.6-0.2c-0.6,0.1-1.2,0.4-1.5,1
				C338.2,146.3,337.3,148.1,336.9,150L336.9,150z"/>
			<path class="st0" d="M337.8,144.2c-1.5,0.9-2.8,2.2-3.7,3.8c-0.9,1.4-1.3,3-1.4,4.7c0,1,0.3,2,0.9,2.7c0.6,0.8,1.8,1.2,3.4,1.2
				c1.2,0,2.4-0.3,3.5-0.8c1.2-0.7,2.3-1.6,3.2-2.6l-0.4-0.6c-0.8,0.4-1.7,0.9-2.5,1.5l-1.9,0.4c-0.6,0-1.1-0.2-1.5-0.6
				c-0.4-0.4-0.6-1-0.6-1.6c0,0,0.1-1.1,0.1-1.4c0.3,0,2.6-0.4,2.6-0.4c1-0.3,1.9-0.7,2.8-1.3c0.9-0.6,1.6-1.3,2.1-2.2
				c0.4-0.6,0.6-1.4,0.6-2.1c0-0.6-0.2-1.1-0.6-1.5c-0.5-0.4-1.2-0.7-1.9-0.6C340.9,142.8,339.2,143.3,337.8,144.2z M333.9,155.2
				c-0.6-0.7-0.9-1.6-0.9-2.5c0-1.6,0.5-3.2,1.3-4.5c0.9-1.5,2.1-2.8,3.6-3.7c1.4-0.9,3-1.3,4.6-1.4c0.6,0,1.2,0.1,1.7,0.5
				c0.4,0.3,0.6,0.8,0.5,1.3c0,0.7-0.2,1.3-0.6,1.9c-0.5,0.8-1.2,1.5-2,2.1c-0.8,0.5-1.8,1-2.7,1.2l-2.8,0.4v0.1l-0.1,1.5
				c0,0.7,0.2,1.3,0.6,1.8c0.5,0.5,1.1,0.7,1.8,0.7l2-0.4l2.3-1.5l0.2,0.3c-0.9,0.9-2,1.7-3.1,2.3c-1,0.5-2.2,0.8-3.3,0.8
				C335.5,156.2,334.5,155.9,333.9,155.2L333.9,155.2z"/>
			<path class="st0" d="M339.3,144.7c-1.2,1.5-2.1,3.3-2.6,5.2l-0.1,0.3l2.2-0.6l1.4-1l1.2-1.8l0.5-2.1l-0.3-0.7l-0.7-0.3
				C340.3,143.8,339.7,144.2,339.3,144.7z M339.6,144.9c0.3-0.5,0.8-0.8,1.4-0.9l0.4,0.2l0.2,0.5l-0.5,1.9l-1.1,1.7l-1.3,1
				c0,0-1.1,0.3-1.6,0.4C337.6,148,338.4,146.4,339.6,144.9L339.6,144.9z"/>
		</g>
		<g>
			<path class="st0" d="M353.7,136.5l-4.8,16c-0.2,0.6-0.3,1.2-0.4,1.8c0,0.1,0,0.2,0.1,0.3c0.1,0.1,0.2,0.1,0.3,0.1
				c0.2,0,0.4-0.1,0.5-0.2c0.6-0.5,1.1-1.1,1.5-1.8l0.6,0.2c-0.7,1.1-1.6,2.1-2.7,2.9c-0.6,0.4-1.2,0.6-1.9,0.6
				c-0.5,0-1.1-0.1-1.5-0.5c-0.3-0.3-0.5-0.8-0.5-1.2c0-0.6,0.2-1.1,0.3-1.7l3.9-13c0.2-0.5,0.3-0.9,0.3-1.4c0-0.2-0.1-0.4-0.3-0.5
				c-0.4-0.2-0.8-0.3-1.3-0.2l0.2-0.5l4.9-0.8H353.7z"/>
			<path class="st0" d="M352.9,136.3l-4.9,0.8l-0.3,0.6l-0.1,0.2l0.2,0l1.2,0.2c0.1,0.1,0.2,0.2,0.2,0.4l-0.3,1.4l-3.9,13l-0.4,1.7
				c0,0.5,0.2,1,0.6,1.3c0.4,0.4,1,0.6,1.6,0.5c0.7,0,1.4-0.2,2-0.6c1.1-0.8,2-1.8,2.7-3l0.1-0.2l-0.7-0.3c-0.6,0.6-1.2,1.2-1.7,1.8
				l-0.4,0.2c-0.1-0.1-0.2-0.1-0.2-0.2l0.4-1.7l4.9-16.2L352.9,136.3z M348.1,137.4l4.8-0.7h0.6c-0.1,0.4-4.8,15.7-4.8,15.7
				l-0.4,1.8l0.2,0.4l0.4,0.2l0.6-0.2l1.6-1.8l0.2,0.2c-0.7,1.1-1.5,2-2.5,2.7c-0.5,0.4-1.2,0.6-1.8,0.6c-0.5,0-1-0.1-1.4-0.5
				c-0.3-0.3-0.5-0.7-0.5-1.1l0.3-1.6l3.9-13l0.3-1.5c0-0.3-0.2-0.5-0.4-0.7l-1.2-0.2L348.1,137.4z"/>
		</g>
		<g>
			<path class="st0" d="M361.1,136.5l-4.8,16c-0.2,0.6-0.3,1.2-0.4,1.8c0,0.1,0,0.2,0.1,0.3c0.1,0.1,0.2,0.1,0.3,0.1
				c0.2,0,0.3-0.1,0.5-0.2c0.6-0.5,1.1-1.1,1.5-1.8l0.6,0.2c-0.7,1.1-1.6,2.1-2.6,2.9c-0.6,0.4-1.2,0.6-1.9,0.6
				c-0.5,0-1.1-0.1-1.5-0.5c-0.4-0.3-0.6-0.8-0.6-1.2c0-0.6,0.2-1.1,0.3-1.7l3.9-13c0.2-0.5,0.3-0.9,0.3-1.4c0-0.2-0.1-0.4-0.3-0.5
				c-0.4-0.2-0.8-0.3-1.3-0.2l0.2-0.5l4.9-0.8H361.1z"/>
			<path class="st0" d="M360.2,136.3l-4.9,0.8l-0.3,0.6l0,0.2l0.2,0l1.2,0.2c0.1,0.1,0.2,0.2,0.2,0.4l-0.3,1.4l-3.9,13l-0.4,1.7
				c0,0.5,0.2,1,0.6,1.3c0.5,0.4,1,0.6,1.6,0.5c0.7,0,1.4-0.2,2-0.6c1.1-0.8,2-1.8,2.7-3l0.1-0.2l-0.7-0.3c-0.6,0.6-1.2,1.1-1.7,1.8
				l-0.4,0.2c-0.1-0.1-0.2-0.1-0.2-0.2l0.4-1.7l4.9-16.2L360.2,136.3z M355.5,137.4l4.7-0.7h0.6l-4.8,15.7l-0.4,1.8l0.2,0.4l0.4,0.2
				l0.6-0.2l1.6-1.8c0.1,0.1,0.1,0.1,0.2,0.2c-0.7,1.1-1.5,2-2.5,2.7c-0.5,0.4-1.2,0.6-1.8,0.6c-0.5,0-1-0.1-1.4-0.5
				c-0.3-0.3-0.5-0.7-0.5-1.1l0.3-1.6l3.9-13l0.3-1.5c0-0.3-0.1-0.5-0.4-0.7l-1.2-0.2L355.5,137.4z"/>
		</g>
		<g>
			<path class="st0" d="M366.8,142.9l-3.2,9.9c-0.1,0.4-0.2,0.7-0.3,1.1c0,0.1,0,0.2,0.1,0.3c0.1,0.1,0.2,0.1,0.3,0.1
				c0.2,0,0.4-0.1,0.5-0.2c0.6-0.6,1.1-1.2,1.5-2l0.5,0.3c-1.4,2.5-2.9,3.8-4.5,3.8c-0.5,0-1.1-0.2-1.5-0.5
				c-0.4-0.3-0.6-0.8-0.5-1.3c0-0.5,0.1-0.9,0.3-1.3l2.2-6.7c0.2-0.5,0.3-1,0.3-1.5c0-0.2-0.1-0.4-0.3-0.6c-0.2-0.2-0.5-0.3-0.8-0.2
				c-0.1,0-0.3,0-0.5,0l0.2-0.6l4.9-0.8L366.8,142.9z M365.7,136.5c1.1,0,2.1,0.9,2.1,2.1c0,1.1-0.9,2.1-2.1,2.1
				c-0.6,0-1.1-0.2-1.5-0.6c-0.8-0.8-0.8-2.1,0-2.9C364.6,136.7,365.1,136.5,365.7,136.5z"/>
			<path class="st0" d="M366,142.8l-5,0.8l-0.3,0.7l-0.1,0.2h0.8l0.7,0.2c0.1,0.1,0.2,0.3,0.2,0.4l-0.3,1.4l-2.2,6.7l-0.3,1.4
				c0,0.5,0.2,1.1,0.6,1.4c0.4,0.4,1,0.6,1.6,0.6c1.7,0,3.2-1.3,4.7-3.9l-0.5-0.5c-0.6,0.6-1.2,1.3-1.7,2l-0.4,0.2
				c-0.1-0.1-0.2-0.2-0.2-0.3l0.2-1.1l3.2-10.2H366z M361.2,143.8l4.8-0.6h0.6c-0.1,0.4-3.1,9.7-3.1,9.7l-0.3,1.2l0.2,0.4l0.4,0.2
				l0.6-0.3l1.5-2l0.3,0.3c-1.4,2.3-2.9,3.5-4.5,3.5c-0.5,0-1-0.1-1.4-0.5c-0.3-0.3-0.5-0.7-0.5-1.2l0.3-1.3l2.1-6.7l0.3-1.5
				c0-0.3-0.1-0.5-0.3-0.7l-0.9-0.3h-0.3C361.1,144,361.2,143.8,361.2,143.8L361.2,143.8z"/>
			<path class="st0" d="M364.1,136.9c-0.4,0.4-0.6,1-0.6,1.6c0,0.6,0.2,1.2,0.6,1.6c0.4,0.4,1,0.7,1.6,0.6c0.6,0,1.2-0.2,1.6-0.6
				c0.4-0.4,0.6-1,0.6-1.6c0-0.6-0.2-1.2-0.6-1.6c-0.4-0.4-1-0.6-1.6-0.6C365.1,136.3,364.5,136.5,364.1,136.9z M364.3,139.9
				c-0.4-0.3-0.6-0.8-0.6-1.3c0-0.5,0.2-1,0.6-1.4c0.3-0.4,0.8-0.6,1.3-0.6c0.5,0,1,0.2,1.3,0.6c0.4,0.4,0.6,0.8,0.5,1.4
				c0,0.5-0.2,1-0.6,1.3c-0.3,0.4-0.8,0.6-1.3,0.6C365.2,140.5,364.7,140.3,364.3,139.9L364.3,139.9z"/>
		</g>
		<g>
			<path class="st0" d="M377.7,143.8h3.7l-0.4,1.5H379c0.3,0.5,0.4,1,0.5,1.6c0,0.8-0.2,1.7-0.7,2.4c-0.5,0.8-1.2,1.4-2,1.7
				c-0.9,0.4-2,0.7-3,0.6c-0.3,0-0.6,0-1-0.1c-0.4,0-0.7-0.1-1.1-0.2c-0.4,0.2-0.8,0.4-1.2,0.8c-0.1,0.1-0.2,0.3-0.2,0.4
				c0,0.2,0.1,0.3,0.2,0.4c0.3,0.3,0.7,0.4,1.1,0.5c1.3,0.2,2.5,0.6,3.8,1c0.7,0.3,1.4,0.7,1.9,1.3c0.4,0.6,0.7,1.3,0.6,2
				c0,1.2-0.6,2.4-1.6,3.1c-1.1,0.9-2.7,1.3-5,1.3c-2.3,0-4-0.4-5-1.1c-0.7-0.4-1.1-1.1-1.2-1.9c0-0.6,0.3-1.2,0.8-1.6
				c0.5-0.5,1.6-0.9,3.3-1.3c-0.4-0.2-0.8-0.5-1.2-0.9c-0.3-0.3-0.4-0.7-0.4-1.1c0-0.6,0.3-1.2,0.8-1.7c0.8-0.6,1.6-1.1,2.5-1.4
				c-0.8-0.3-1.5-0.8-2-1.5c-0.4-0.6-0.6-1.3-0.6-2c0-0.8,0.3-1.6,0.7-2.3c0.6-0.8,1.3-1.4,2.2-1.8c1-0.5,2.2-0.7,3.3-0.7
				c0.7,0,1.4,0.1,2.1,0.3C377,143.3,377.3,143.5,377.7,143.8z M369.9,156.6c-0.7,0.2-1.3,0.6-1.8,1.1c-0.3,0.4-0.5,0.8-0.5,1.3
				c0,0.7,0.4,1.3,1,1.7c0.9,0.6,2,0.8,3.1,0.7c0.9,0.1,1.8-0.2,2.5-0.6c0.5-0.4,0.8-0.9,0.8-1.5c0-0.5-0.3-1-0.7-1.2
				c-0.9-0.5-1.8-0.8-2.8-1C370.8,156.9,370.3,156.7,369.9,156.6z M374.7,143.6c-0.4,0-0.8,0.2-1.2,0.5c-0.6,0.6-1.1,1.4-1.3,2.3
				c-0.4,1-0.5,2-0.6,3.1c0,0.4,0.1,0.8,0.4,1.1c0.3,0.3,0.6,0.4,1,0.4c0.4,0,0.7-0.1,1-0.4c0.6-0.7,1.1-1.6,1.4-2.5
				c0.4-1,0.6-2,0.6-3.1c0-0.4-0.1-0.7-0.4-1C375.4,143.8,375.1,143.6,374.7,143.6L374.7,143.6z"/>
			<path class="st0" d="M371.1,143.5c-0.9,0.4-1.7,1-2.2,1.8c-0.5,0.7-0.8,1.5-0.8,2.4c0,0.8,0.2,1.5,0.6,2.1c0.5,0.6,1.1,1,1.8,1.3
				c-0.8,0.3-1.6,0.8-2.3,1.3c-0.5,0.5-0.8,1.1-0.8,1.8l0.4,1.2l0.9,0.7c-1.5,0.4-2.5,0.8-3,1.2c-0.5,0.4-0.8,1.1-0.8,1.7
				c0,0.9,0.5,1.6,1.2,2.1c1.1,0.8,2.8,1.2,5.1,1.2c2.3,0,4-0.5,5.1-1.3c1-0.7,1.7-1.9,1.7-3.2c0-0.7-0.2-1.5-0.6-2.1
				c-0.5-0.6-1.2-1.1-2-1.4l-3.8-1l-1-0.4c-0.1-0.1-0.1-0.2-0.1-0.3l0.1-0.3l1.1-0.7l1,0.2l1,0.1c1.1,0,2.1-0.2,3.1-0.6
				c0.9-0.4,1.6-1,2.1-1.8c0.5-0.7,0.7-1.6,0.7-2.5c0,0-0.3-1.1-0.4-1.4h1.7l0.6-1.7l0.1-0.2h-3.9l-1.1-0.6l-2.2-0.3
				C373.3,142.8,372.1,143,371.1,143.5z M366.3,160.9c-0.6-0.4-1.1-1.1-1.1-1.8c0-0.6,0.3-1.1,0.7-1.5c0.5-0.5,1.6-0.9,3.2-1.3
				l0.4-0.1l-1.4-1l-0.4-1c0-0.6,0.3-1.1,0.7-1.5c0.7-0.6,1.6-1.1,2.5-1.4l0.4-0.2l-0.4-0.2c-0.8-0.3-1.4-0.7-1.9-1.4
				c-0.4-0.6-0.6-1.2-0.6-1.9c0-0.8,0.3-1.6,0.7-2.2c0.5-0.8,1.3-1.4,2.1-1.7c1-0.5,2.1-0.7,3.2-0.7l2.1,0.2l1.1,0.6h0.1h3.5
				c-0.1,0.3-0.4,1.3-0.4,1.3l-1.8-0.1h-0.2l0.5,1.7c0,0.8-0.2,1.6-0.7,2.3c-0.5,0.7-1.2,1.3-2,1.7c-0.9,0.4-1.9,0.7-2.9,0.6
				l-0.9-0.1l-1.1-0.2c-0.1,0-1.3,0.8-1.3,0.8l-0.2,0.5c0,0.2,0.1,0.4,0.3,0.6l1.1,0.5l3.8,1c0.7,0.3,1.3,0.7,1.8,1.3
				c0.4,0.5,0.6,1.2,0.6,1.9c0,1.2-0.6,2.3-1.6,3c-1,0.8-2.7,1.3-4.9,1.3C369,162,367.3,161.7,366.3,160.9z"/>
			<path class="st0" d="M369.8,156.4c-0.7,0.2-1.4,0.6-1.9,1.2l-0.5,1.4c0,0.7,0.4,1.4,1,1.8c1,0.6,2.1,0.9,3.2,0.8
				c0.9,0.1,1.9-0.2,2.7-0.7c0.5-0.4,0.8-1,0.8-1.6c0-0.6-0.3-1.1-0.8-1.4c-0.9-0.5-1.8-0.8-2.8-1L369.8,156.4L369.8,156.4z
				 M368.6,160.5c-0.5-0.3-0.9-0.9-0.9-1.5l0.5-1.2c0.5-0.5,1.1-0.8,1.7-1.1l1.5,0.4c0.9,0.2,1.9,0.5,2.7,1c0.4,0.2,0.6,0.6,0.6,1.1
				l0,0c0,0.6-0.3,1.1-0.7,1.4c-0.7,0.5-1.6,0.7-2.4,0.6C370.5,161.3,369.5,161.1,368.6,160.5z"/>
			<path class="st0" d="M373.5,144c-0.6,0.7-1.1,1.5-1.4,2.4c-0.4,1-0.6,2.1-0.6,3.1l0.4,1.2l1.1,0.5l1.1-0.4
				c0.7-0.7,1.2-1.6,1.4-2.5c0.4-1,0.6-2.1,0.6-3.1l-0.4-1.1l-1-0.4L373.5,144z M372.2,150.4l-0.3-1c0-1,0.2-2,0.6-3
				c0.2-0.8,0.7-1.6,1.3-2.2l1-0.4l0.8,0.3l0.3,0.9c0,1-0.2,2.1-0.6,3c-0.3,0.9-0.7,1.7-1.3,2.4l-0.9,0.3L372.2,150.4z"/>
		</g>
		<g>
			<path class="st0" d="M384.8,150.7c-0.1,0.5-0.1,1-0.1,1.5c0,0.6,0.2,1.2,0.6,1.7c0.4,0.4,1,0.7,1.6,0.6c0.7,0,1.4-0.2,2-0.4
				c0.8-0.4,1.6-0.9,2.3-1.5l0.4,0.4c-0.9,1.1-2,1.9-3.2,2.6c-1.1,0.5-2.2,0.8-3.4,0.8c-1.6,0-2.6-0.4-3.2-1.1
				c-0.6-0.7-0.9-1.7-0.9-2.6c0-1.6,0.5-3.2,1.3-4.6c0.9-1.5,2.1-2.8,3.7-3.7c1.4-0.9,3-1.4,4.7-1.4c0.6,0,1.3,0.2,1.8,0.6
				c0.4,0.4,0.6,0.9,0.6,1.4c0,0.7-0.2,1.4-0.6,2c-0.5,0.9-1.2,1.6-2.1,2.1c-0.9,0.6-1.8,1-2.8,1.3
				C386.7,150.5,385.7,150.7,384.8,150.7z M384.9,150c0.7-0.1,1.3-0.2,1.9-0.5c0.5-0.2,1-0.6,1.3-1c0.5-0.5,0.9-1.1,1.1-1.8
				c0.3-0.6,0.5-1.3,0.5-2c0-0.2-0.1-0.5-0.2-0.6c-0.1-0.2-0.3-0.2-0.5-0.2c-0.6,0.1-1.2,0.4-1.5,1
				C386.3,146.3,385.4,148.1,384.9,150z"/>
			<path class="st0" d="M385.9,144.2c-1.5,0.9-2.8,2.2-3.7,3.8c-0.9,1.4-1.3,3-1.4,4.7c0,1,0.3,2,0.9,2.7c0.6,0.8,1.7,1.2,3.4,1.2
				c1.2,0,2.4-0.3,3.5-0.8c1.2-0.7,2.3-1.6,3.2-2.6l-0.4-0.6c-0.9,0.4-1.7,0.9-2.5,1.5l-1.9,0.4c-0.6,0-1.1-0.2-1.5-0.6
				c-0.4-0.4-0.6-1-0.6-1.6c0,0,0.1-1.1,0.1-1.4c0.3,0,2.7-0.4,2.7-0.4c1-0.3,1.9-0.7,2.8-1.3c0.9-0.6,1.6-1.3,2.1-2.2
				c0.4-0.6,0.6-1.3,0.6-2.1c0-0.6-0.2-1.1-0.6-1.5c-0.5-0.4-1.2-0.6-1.9-0.6C388.9,142.8,387.3,143.3,385.9,144.2z M382,155.2
				c-0.6-0.7-0.9-1.6-0.9-2.5c0-1.6,0.5-3.2,1.3-4.5c0.9-1.5,2.1-2.8,3.6-3.7c1.4-0.9,2.9-1.3,4.6-1.4c0.6,0,1.2,0.1,1.7,0.5
				c0.4,0.3,0.6,0.8,0.5,1.3c0,0.7-0.2,1.3-0.6,1.9c-0.5,0.8-1.2,1.5-2,2.1c-0.8,0.5-1.8,1-2.7,1.2l-2.9,0.4v0.1l-0.1,1.5
				c0,0.7,0.2,1.3,0.6,1.8c0.5,0.5,1.1,0.7,1.8,0.7l2-0.4l2.3-1.5l0.2,0.3c-0.9,0.9-2,1.7-3.1,2.3c-1,0.5-2.2,0.8-3.3,0.8
				C383.6,156.2,382.5,155.9,382,155.2z"/>
			<path class="st0" d="M387.4,144.7c-1.2,1.5-2.1,3.3-2.6,5.2l-0.1,0.3l2.2-0.6l1.4-1l1.2-1.8l0.5-2.1l-0.3-0.7l-0.7-0.3
				C388.4,143.8,387.8,144.2,387.4,144.7z M387.6,144.9c0.3-0.5,0.8-0.8,1.4-0.9l0.4,0.2l0.2,0.5l-0.5,1.9l-1.1,1.7l-1.3,1l-1.6,0.4
				C385.7,148,386.5,146.4,387.6,144.9L387.6,144.9z"/>
		</g>
		<g>
			<path class="st0" d="M400.3,142.9l-1.8,6c0.8-1.3,1.8-2.5,2.8-3.6c0.7-0.8,1.5-1.4,2.4-1.9c0.6-0.3,1.2-0.5,1.8-0.5
				c0.5,0,1,0.2,1.3,0.6c0.4,0.4,0.6,1,0.6,1.5c0,0.7-0.1,1.3-0.4,1.9l-1.9,5.9c-0.1,0.3-0.2,0.7-0.2,1c0,0.1,0,0.2,0.1,0.3
				c0.1,0.1,0.1,0.1,0.2,0.1c0.1,0,0.2,0,0.3-0.1c0.4-0.3,0.7-0.7,1-1.1c0.1-0.1,0.2-0.3,0.4-0.6l0.5,0.3c-1.4,2.3-2.9,3.4-4.4,3.4
				c-0.5,0-1-0.1-1.4-0.5c-0.3-0.3-0.5-0.7-0.5-1.1c0-0.6,0.2-1.2,0.4-1.8l1.9-6c0.1-0.3,0.2-0.6,0.2-0.9c0-0.1-0.1-0.2-0.1-0.3
				c-0.1-0.1-0.2-0.1-0.3-0.1c-0.5,0.1-1.1,0.3-1.4,0.7c-1.7,1.6-3.1,3.5-4.1,5.5l-1.2,4.2h-3.6l2.7-9c0.2-0.6,0.3-1.3,0.4-1.9
				c0-0.1,0-0.3-0.1-0.4c-0.1-0.1-0.2-0.2-0.4-0.3c-0.3-0.1-0.7-0.1-1-0.1l0.2-0.5l4.9-0.8L400.3,142.9z"/>
			<path class="st0" d="M403.6,143.3c-0.9,0.5-1.7,1.2-2.4,2c0,0-1.4,1.9-2.2,2.9c0.4-1.3,1.6-5.4,1.6-5.4h-1.1l-4.9,0.8l-0.3,0.6
				l-0.1,0.2l1.2,0.1l0.3,0.2l0.1,0.3l-0.4,1.9l-2.8,9.2h3.8l1.4-4.3c1-2,2.4-3.9,4.1-5.5c0.3-0.4,0.8-0.6,1.3-0.7
				c0.3,0.1,0.3,0.2,0.3,0.2l-0.2,0.8l-1.9,6l-0.4,1.8c0,0.5,0.2,0.9,0.5,1.3c0.4,0.3,0.9,0.5,1.5,0.5c1.6,0,3.1-1.2,4.5-3.5
				l-0.6-0.5c-0.2,0-0.6,0.6-0.6,0.6l-1,1.1h-0.3l-0.1-0.1l0.2-0.9l1.9-5.9l0.4-1.9c0-0.6-0.2-1.2-0.6-1.6c-0.4-0.4-0.9-0.6-1.5-0.6
				L403.6,143.3z M394.7,143.8l4.8-0.7h0.6c-0.1,0.4-1.7,5.8-1.7,5.8l0.3,0.2l2.8-3.6c0.7-0.8,1.4-1.4,2.3-1.9l1.8-0.5
				c0.5,0,0.9,0.2,1.2,0.5c0.3,0.4,0.5,0.9,0.5,1.4l-0.3,1.8l-1.9,5.9l-0.2,1.1l0.2,0.5h0.3l0.4-0.1l1-1.2l0.4-0.6l0.3,0.4
				c-1.4,2-2.8,3.1-4.3,3.1c-0.5,0-0.9-0.1-1.3-0.4c-0.3-0.3-0.5-0.6-0.4-1l0.4-1.7l1.9-6l0.2-0.9c0-0.2-0.1-0.3-0.2-0.4l-0.4-0.2
				c-0.6,0.1-1.1,0.3-1.5,0.8c-1.7,1.6-3.1,3.5-4.2,5.6l-1.2,4.2l-3.2-0.1c0.1-0.4,2.7-8.8,2.7-8.8l0.4-1.9l-0.1-0.5l-0.5-0.3
				l-0.9-0.1L394.7,143.8z"/>
		</g>
		<g>
			<path class="st0" d="M416.5,139.5l-1.2,3.8h1.6l-0.5,1.6h-1.6l-2.5,8.3c-0.1,0.4-0.2,0.8-0.2,1.2c0,0.1,0,0.2,0.1,0.2
				c0.1,0.1,0.2,0.1,0.3,0.1c0.2,0,0.3-0.1,0.5-0.2c0.6-0.5,1.1-1.1,1.5-1.7l0.5,0.3c-0.5,1-1.2,1.8-2.1,2.5
				c-0.7,0.5-1.5,0.8-2.3,0.8c-0.5,0-1.1-0.1-1.5-0.5c-0.3-0.3-0.5-0.8-0.5-1.2c0-0.7,0.2-1.4,0.4-2.1l2.4-7.6h-1.8l0.3-1
				c1.1-0.4,2.1-0.9,3-1.5c1.1-0.8,2.1-1.8,3.1-2.9L416.5,139.5z"/>
			<path class="st0" d="M415.7,139.3c-1,1-2,2-3.1,2.9l-2.9,1.5l-0.4,1.2l-0.1,0.2h1.8c-0.1,0.4-2.3,7.4-2.3,7.4l-0.4,2.2
				c0,0.5,0.2,1,0.6,1.3c0.4,0.4,1,0.6,1.6,0.5c0.9,0,1.7-0.3,2.4-0.8c0.9-0.7,1.7-1.5,2.2-2.5l-0.5-0.5c-0.6,0.5-1.2,1.1-1.7,1.7
				l-0.4,0.2c-0.2-0.1-0.2-0.2-0.2-0.2l0.2-1.1l2.5-8.3l1.4,0.1l0.6-1.7l0.1-0.2h-1.6c0.1-0.4,1.2-3.8,1.2-3.8L415.7,139.3z
				 M412.7,142.5c1.1-0.8,2.2-1.8,3.1-2.9l0.4,0c-0.1,0.3-1.2,3.8-1.2,3.8h1.6l-0.4,1.4l-1.4-0.1l-2.7,8.4l-0.3,1.2
				c0,0.1,0.1,0.3,0.2,0.4l0.4,0.2l0.6-0.2l1.5-1.7l0.3,0.3c-0.6,0.8-1.3,1.6-2.1,2.2c-0.6,0.5-1.4,0.7-2.2,0.8
				c-0.5,0-1-0.1-1.4-0.4c-0.3-0.3-0.5-0.7-0.5-1.1l0.4-2l2.5-7.8h-1.8c0.1-0.2,0.2-0.8,0.2-0.8L412.7,142.5L412.7,142.5z"/>
		</g>
		<g>
			<path class="st0" d="M430,147.2l-1.5,5.3c-0.2,0.5-0.3,1-0.3,1.6c0,0.4,0.1,0.7,0.4,1c0.6,0.3,1.3,0.4,1.9,0.4l-0.2,0.5H421
				l0.2-0.5c0.6,0,1.1-0.1,1.7-0.2c0.3-0.2,0.6-0.4,0.8-0.7c0.3-0.6,0.6-1.3,0.7-2l3.5-12.1c0.2-0.6,0.3-1.1,0.4-1.7
				c0-0.4-0.2-0.7-0.5-0.9c-0.5-0.3-1.1-0.4-1.7-0.4l0.2-0.5h7.6c2.1,0,3.6,0.3,4.5,0.8c1.4,0.7,2.2,2.2,2.1,3.7
				c0,1.7-0.8,3.2-2.1,4.2c-1.4,1.2-3.3,1.8-5.7,1.8C431.7,147.4,430.8,147.3,430,147.2z M430.3,146.1c0.6,0.1,1.1,0.1,1.5,0.1
				c1.3,0,2.4-0.7,3-1.8c0.7-1.1,1.1-2.4,1.1-3.7c0-0.7-0.2-1.5-0.7-2c-0.5-0.5-1.2-0.8-2-0.7c-0.2,0-0.4,0-0.6,0L430.3,146.1z"/>
			<path class="st0" d="M426.2,136.7l-0.3,0.6l-0.1,0.2h0.2c0.6,0,1.1,0.1,1.6,0.4c0.3,0.2,0.4,0.4,0.4,0.8l-0.4,1.7l-3.5,12.1
				l-0.7,1.9l-0.8,0.6l-1.6,0.2l-0.3,0.6l-0.1,0.2h9.5l0.3-0.6l0.1-0.2h-0.2c-1.2,0-1.6-0.2-1.8-0.3c-0.3-0.2-0.4-0.5-0.4-0.8
				l0.3-1.5c0,0,1.4-4.9,1.4-5.2l2.5,0.2c2.4,0,4.4-0.6,5.8-1.9c1.3-1,2.1-2.6,2.2-4.3c0.1-1.6-0.8-3.1-2.2-3.9
				c-0.9-0.5-2.4-0.8-4.6-0.8L426.2,136.7z M426.3,136.9l7.4,0.1c2,0,3.5,0.3,4.4,0.8c1.3,0.7,2.1,2.1,2,3.6c0,1.6-0.8,3.1-2.1,4.1
				c-1.4,1.2-3.2,1.8-5.6,1.8l-2.7-0.2l0,0.1l-1.5,5.3l-0.3,1.6c0,0.4,0.2,0.8,0.5,1.1c0.6,0.3,1.2,0.4,1.8,0.4
				c-0.1,0.1-0.1,0.3-0.1,0.3s-8.5-0.1-8.9-0.1c0-0.1,0-0.2,0.1-0.3c0.5,0,1.1-0.1,1.6-0.1l0.9-0.8l0.7-2l3.5-12.1l0.4-1.8
				c0-0.4-0.2-0.8-0.5-1c-0.5-0.3-1-0.4-1.6-0.4C426.3,137.1,426.3,136.9,426.3,136.9z"/>
			<path class="st0" d="M432.5,137.9l-2.5,8.4l1.7,0.1c1.3,0,2.6-0.7,3.2-1.8c0.7-1.1,1.1-2.5,1.1-3.8c0-0.8-0.2-1.6-0.8-2.1
				c-0.6-0.5-1.3-0.8-2.1-0.8L432.5,137.9z M432.7,138.1c0,0.1,0.5,0.1,0.5,0.1c0.7,0,1.3,0.2,1.8,0.7c0.5,0.5,0.7,1.2,0.6,1.9
				c0,1.3-0.4,2.5-1.1,3.6c-0.6,1.1-1.7,1.7-2.9,1.7l-1.3-0.1C430.6,145.6,432.7,138.2,432.7,138.1L432.7,138.1z"/>
		</g>
		<g>
			<path class="st0" d="M448.1,136.5l-4.8,16c-0.2,0.6-0.3,1.2-0.4,1.8c0,0.1,0,0.2,0.1,0.3c0.1,0.1,0.2,0.1,0.3,0.1
				c0.2,0,0.3-0.1,0.5-0.2c0.6-0.5,1.1-1.1,1.5-1.8l0.6,0.2c-0.7,1.1-1.6,2.1-2.7,2.9c-0.6,0.4-1.2,0.6-1.9,0.6
				c-0.5,0-1.1-0.1-1.5-0.5c-0.4-0.3-0.6-0.8-0.6-1.2c0-0.6,0.2-1.1,0.4-1.7l3.9-13c0.2-0.5,0.3-0.9,0.3-1.4c0-0.2-0.1-0.4-0.3-0.5
				c-0.4-0.2-0.8-0.3-1.3-0.2l0.2-0.5l4.9-0.8H448.1z"/>
			<path class="st0" d="M447.3,136.3l-4.9,0.8l-0.3,0.6L442,138l0.2,0l1.2,0.2c0.1,0.1,0.2,0.2,0.2,0.4l-0.3,1.4l-3.9,13l-0.4,1.7
				c0,0.5,0.2,1,0.6,1.3c0.4,0.4,1,0.6,1.6,0.5c0.7,0,1.4-0.2,2-0.6c1.1-0.8,2-1.8,2.7-3l0.1-0.2l-0.7-0.3c-0.6,0.6-1.2,1.2-1.7,1.8
				l-0.4,0.2c-0.1,0-0.1-0.1-0.2-0.2l0.4-1.7l4.9-16.2L447.3,136.3z M442.5,137.4l4.7-0.7h0.6c-0.1,0.4-4.8,15.7-4.8,15.7l-0.4,1.8
				l0.2,0.4l0.4,0.2l0.6-0.2l1.6-1.8l0.2,0.2c-0.7,1.1-1.5,2-2.5,2.7c-0.5,0.4-1.2,0.6-1.8,0.6c-0.5,0-1-0.1-1.4-0.5
				c-0.3-0.3-0.5-0.7-0.5-1.1l0.3-1.6l4-13l0.3-1.5c0-0.3-0.1-0.5-0.4-0.7l-1.2-0.2C442.5,137.6,442.5,137.4,442.5,137.4
				L442.5,137.4z"/>
		</g>
		<g>
			<path class="st0" d="M460.1,143.1l-2.8,9.4l-0.3,1.1c0,0.1,0,0.2,0,0.3c0,0.1,0,0.2,0.1,0.3c0.1,0.1,0.1,0.1,0.2,0.1
				c0.3-0.1,0.6-0.2,0.8-0.5c0.4-0.4,0.7-0.8,1-1.3l0.5,0.3c-0.5,1-1.2,1.9-2.1,2.6c-0.7,0.5-1.6,0.8-2.4,0.8
				c-0.4,0-0.9-0.1-1.2-0.4c-0.3-0.3-0.4-0.7-0.4-1c0.1-0.7,0.2-1.4,0.5-2.1l0.3-1.1c-0.8,1.5-1.9,2.9-3.2,4
				c-0.5,0.4-1.2,0.7-1.9,0.7c-0.8,0.1-1.5-0.4-1.9-1.1c-0.4-0.7-0.6-1.6-0.6-2.4c0.1-1.6,0.5-3.1,1.2-4.6c0.7-1.6,1.8-3,3.2-4.1
				c0.8-0.8,1.9-1.2,3.1-1.3c0.5,0,0.9,0.1,1.3,0.4c0.4,0.5,0.7,1.1,0.7,1.7l0.5-1.8L460.1,143.1z M455.5,145.8
				c0-0.6-0.1-1.1-0.3-1.6c-0.2-0.2-0.4-0.4-0.7-0.3c-0.3,0-0.7,0.2-0.9,0.4c-0.6,0.6-1.3,1.7-2,3.5c-0.7,1.4-1,3-1.1,4.6
				c0,0.4,0.1,0.8,0.2,1.1c0.1,0.2,0.3,0.3,0.5,0.3c0.5,0,1-0.3,1.3-0.7c0.7-0.8,1.2-1.6,1.7-2.5C455,149.1,455.5,147.5,455.5,145.8
				L455.5,145.8z"/>
			<path class="st0" d="M451.1,144.1c-1.4,1.1-2.5,2.6-3.3,4.2c-0.7,1.4-1.1,3-1.2,4.6c0,0.9,0.2,1.7,0.6,2.5c0.4,0.7,1.2,1.2,2,1.1
				c0.7,0,1.4-0.3,2-0.7c1-0.9,1.9-1.9,2.5-3.1c0,0,0,0,0,0.1l-0.5,2.1l0.5,1.2l1.3,0.5c0.9,0,1.8-0.3,2.5-0.9
				c0.9-0.7,1.7-1.7,2.2-2.7l-0.6-0.5c-0.4,0.4-0.9,0.8-1.2,1.3l-0.7,0.4c-0.1-0.1-0.2-0.2-0.2-0.3l0-0.3l0.3-1.1l2.8-9.6l-3.6,0.2
				c0,0-0.3,1-0.5,1.5c-0.1-0.5-0.3-1-0.6-1.4c-0.4-0.3-0.9-0.5-1.4-0.5C453.1,142.8,451.9,143.3,451.1,144.1z M447.5,155.2
				c-0.4-0.7-0.6-1.5-0.6-2.3c0.1-1.6,0.5-3.1,1.2-4.5c0.7-1.6,1.8-3,3.2-4.1c0.8-0.7,1.9-1.2,3-1.3c0.4,0,0.8,0.1,1.2,0.4
				c0.4,0.5,0.6,1,0.6,1.6h0.3l0.5-1.7l2.9-0.1l-2.7,9.2l-0.3,1.2l-0.1,0.3l0.2,0.4l0.4,0.2l0.9-0.5l1-1.3l0.3,0.3
				c-0.6,0.9-1.3,1.7-2.1,2.4c-0.7,0.5-1.5,0.8-2.3,0.8l-1.1-0.4l-0.4-0.9l0.5-2l0.3-1.1l-0.3-0.1c-0.8,1.5-1.8,2.8-3.1,3.9
				c-0.5,0.4-1.1,0.6-1.8,0.6C448.5,156.2,447.8,155.9,447.5,155.2z"/>
			<path class="st0" d="M453.5,144.1c-0.6,0.6-1.4,1.8-2.1,3.6c-0.7,1.5-1,3-1.1,4.7l0.3,1.2c0.1,0.2,0.4,0.4,0.7,0.4
				c0.6,0,1.1-0.3,1.4-0.8l1.7-2.6c0.8-1.5,1.3-3.1,1.4-4.8c0-0.6-0.1-1.2-0.4-1.7c-0.2-0.3-0.5-0.4-0.8-0.4L453.5,144.1z
				 M450.8,153.4l-0.2-1c0.1-1.6,0.4-3.1,1.1-4.5c0.4-1.3,1.1-2.5,2-3.5l0.8-0.4c0.2,0,0.4,0.1,0.6,0.3c0.2,0.5,0.3,1,0.3,1.5
				c-0.1,1.6-0.5,3.2-1.3,4.6l-1.6,2.5c-0.3,0.4-0.7,0.6-1.2,0.7C451,153.6,450.9,153.5,450.8,153.4z"/>
		</g>
		<g>
			<path class="st0" d="M467.8,142.9l-1.8,6c0.8-1.3,1.8-2.5,2.8-3.6c0.7-0.8,1.5-1.4,2.3-1.9c0.6-0.3,1.2-0.5,1.8-0.5
				c0.5,0,1,0.2,1.3,0.6c0.4,0.4,0.6,1,0.5,1.5c0,0.7-0.1,1.3-0.3,1.9l-1.9,5.9c-0.1,0.3-0.2,0.7-0.2,1c0,0.1,0,0.2,0.1,0.3
				c0.1,0.1,0.1,0.1,0.2,0.1c0.1,0,0.2,0,0.3-0.1c0.4-0.3,0.7-0.7,1-1.1c0.1-0.1,0.2-0.3,0.4-0.6l0.5,0.3c-1.4,2.3-2.9,3.4-4.4,3.4
				c-0.5,0-1-0.1-1.4-0.5c-0.3-0.3-0.5-0.7-0.5-1.1c0-0.6,0.2-1.2,0.4-1.8l1.9-6c0.1-0.3,0.2-0.6,0.2-0.9c0-0.1-0.1-0.2-0.1-0.3
				c-0.1-0.1-0.2-0.1-0.3-0.1c-0.5,0.1-1.1,0.3-1.4,0.7c-1.7,1.6-3.1,3.5-4.1,5.5L464,156h-3.6l2.7-9c0.2-0.6,0.3-1.3,0.4-1.9
				c0-0.1,0-0.3-0.1-0.4c-0.1-0.1-0.2-0.2-0.4-0.3c-0.3-0.1-0.7-0.1-1-0.1l0.2-0.5l4.9-0.8L467.8,142.9z"/>
			<path class="st0" d="M471.1,143.3c-0.9,0.5-1.7,1.2-2.4,2c0,0-1.4,1.9-2.2,2.9c0.4-1.3,1.6-5.4,1.6-5.4h-1.1l-4.9,0.8l-0.3,0.6
				l-0.1,0.2l1.2,0.1l0.3,0.2l0.1,0.3l-0.4,1.9l-2.8,9.2h3.8l1.4-4.3c1-2,2.4-3.9,4.1-5.5c0.3-0.4,0.8-0.6,1.3-0.7
				c0.1,0,0.2,0.1,0.3,0.2l-0.2,0.8l-1.9,6l-0.4,1.8l0.5,1.3c0.4,0.3,1,0.5,1.5,0.5c1.6,0,3.1-1.2,4.5-3.5l-0.6-0.5
				c-0.2,0-0.6,0.6-0.6,0.6l-1,1.1h-0.3l-0.1-0.1l0.2-0.9l1.9-5.9l0.4-1.9c0-0.6-0.2-1.2-0.6-1.6c-0.4-0.4-0.9-0.6-1.5-0.6
				L471.1,143.3z M462.2,143.8l4.7-0.7h0.6c-0.1,0.4-1.7,5.8-1.7,5.8l0.3,0.2l2.8-3.6c0.7-0.8,1.4-1.4,2.3-1.9l1.8-0.5
				c0.5,0,0.9,0.2,1.2,0.5c0.3,0.4,0.5,0.9,0.5,1.4l-0.3,1.8l-1.9,5.9l-0.2,1.1l0.2,0.5h0.3l0.4-0.1l1-1.2l0.4-0.6l0.3,0.4
				c-1.4,2-2.8,3.1-4.3,3.1c-0.5,0-0.9-0.1-1.3-0.4l-0.4-1l0.4-1.7l1.9-6l0.2-0.9l-0.2-0.4l-0.4-0.2c-0.6,0.1-1.1,0.3-1.5,0.8
				c-1.7,1.6-3.1,3.5-4.2,5.6l-1.2,4.2l-3.2-0.1c0.1-0.4,2.7-8.8,2.7-8.8l0.4-1.9l-0.1-0.5l-0.5-0.3l-0.9-0.1L462.2,143.8z"/>
		</g>
		<g>
			<path class="st0" d="M479.9,150.7c-0.1,0.5-0.1,1-0.1,1.5c0,0.6,0.2,1.2,0.6,1.7c0.4,0.4,1,0.7,1.6,0.6c0.7,0,1.4-0.2,2-0.4
				c0.8-0.4,1.6-0.9,2.3-1.5l0.4,0.4c-0.9,1.1-2,1.9-3.2,2.6c-1.1,0.5-2.2,0.8-3.4,0.8c-1.6,0-2.7-0.4-3.2-1.1
				c-0.6-0.7-0.9-1.7-0.9-2.6c0-1.6,0.5-3.2,1.3-4.6c0.9-1.5,2.1-2.8,3.7-3.7c1.4-0.9,3-1.4,4.7-1.4c0.6,0,1.3,0.2,1.8,0.6
				c0.4,0.4,0.6,0.9,0.6,1.4c0,0.7-0.2,1.4-0.6,2c-0.5,0.9-1.2,1.6-2.1,2.1c-0.8,0.6-1.8,1-2.8,1.3
				C481.7,150.5,480.8,150.7,479.9,150.7z M480,150c0.7-0.1,1.3-0.2,1.9-0.5c0.5-0.2,1-0.6,1.3-1c0.5-0.5,0.9-1.1,1.1-1.8
				c0.3-0.6,0.5-1.3,0.5-2c0-0.2-0.1-0.5-0.2-0.6c-0.1-0.2-0.3-0.2-0.6-0.2c-0.6,0.1-1.2,0.4-1.5,1C481.3,146.3,480.5,148.1,480,150
				z"/>
			<path class="st0" d="M480.9,144.2c-1.5,0.9-2.8,2.2-3.7,3.8c-0.9,1.4-1.3,3-1.4,4.7c0,1,0.3,1.9,0.9,2.7c0.6,0.8,1.8,1.2,3.4,1.2
				c1.2,0,2.4-0.3,3.5-0.8c1.2-0.7,2.3-1.6,3.2-2.6l-0.4-0.6c-0.9,0.4-1.7,0.9-2.5,1.5l-1.9,0.4c-0.6,0-1.1-0.2-1.5-0.6
				c-0.4-0.4-0.6-1-0.6-1.6c0,0,0.1-1.1,0.1-1.4c0.3,0,2.7-0.4,2.7-0.4c1-0.3,1.9-0.7,2.8-1.3c0.9-0.6,1.6-1.3,2.1-2.2
				c0.4-0.6,0.6-1.3,0.6-2.1c0-0.6-0.2-1.1-0.6-1.5c-0.5-0.4-1.2-0.6-1.9-0.6C484,142.8,482.3,143.3,480.9,144.2z M477,155.2
				c-0.6-0.7-0.9-1.6-0.9-2.5c0-1.6,0.5-3.2,1.3-4.5c0.9-1.5,2.1-2.8,3.6-3.7c1.4-0.9,3-1.3,4.6-1.4c0.6,0,1.2,0.1,1.7,0.5
				c0.4,0.3,0.6,0.8,0.6,1.3c0,0.7-0.2,1.3-0.6,1.9c-0.5,0.8-1.2,1.6-2,2.1c-0.8,0.5-1.7,1-2.7,1.2l-2.9,0.4v0.1l-0.1,1.5
				c0,0.7,0.2,1.3,0.7,1.8c0.5,0.5,1.1,0.7,1.7,0.7l2-0.4l2.3-1.5l0.2,0.3c-0.9,0.9-2,1.7-3.1,2.3c-1,0.5-2.2,0.8-3.3,0.8
				C478.6,156.2,477.6,155.9,477,155.2L477,155.2z"/>
			<path class="st0" d="M482.4,144.7c-1.2,1.5-2.1,3.3-2.6,5.2l-0.1,0.3l2.2-0.6l1.4-1l1.2-1.8l0.5-2.1l-0.3-0.7l-0.6-0.3
				C483.4,143.8,482.8,144.2,482.4,144.7z M482.7,144.9c0.3-0.5,0.8-0.8,1.4-0.9l0.4,0.2l0.1,0.5l-0.4,1.9l-1.1,1.7l-1.3,1l-1.6,0.4
				C480.7,148,481.6,146.4,482.7,144.9L482.7,144.9z"/>
		</g>
		<g>
			<path class="st0" d="M496.1,139.5l-1.2,3.8h1.6l-0.5,1.6h-1.6l-2.5,8.3c-0.1,0.4-0.2,0.8-0.2,1.2c0,0.1,0,0.2,0.1,0.2
				c0.1,0.1,0.2,0.1,0.3,0.1c0.2,0,0.4-0.1,0.5-0.2c0.6-0.5,1.1-1.1,1.5-1.7l0.5,0.3c-0.5,1-1.2,1.8-2.1,2.5
				c-0.7,0.5-1.5,0.8-2.3,0.8c-0.5,0-1.1-0.1-1.5-0.5c-0.3-0.3-0.5-0.8-0.5-1.2c0-0.7,0.2-1.4,0.4-2.1l2.4-7.6h-1.8l0.3-1
				c1.1-0.4,2-0.9,3-1.5c1.1-0.8,2.1-1.8,3.1-2.9L496.1,139.5z"/>
			<path class="st0" d="M495.3,139.3c-1,1-2,2-3.2,2.9l-2.9,1.5l-0.4,1.2l0,0.2h1.8c-0.1,0.4-2.3,7.4-2.3,7.4l-0.4,2.2
				c0,0.5,0.2,1,0.6,1.3c0.4,0.4,1,0.6,1.6,0.5c0.9,0,1.7-0.3,2.4-0.8c0.9-0.7,1.7-1.5,2.2-2.5l-0.5-0.5c-0.6,0.5-1.2,1.1-1.7,1.7
				l-0.4,0.2c-0.2-0.1-0.2-0.2-0.2-0.2l0.2-1.1l2.5-8.3l1.4,0.1l0.6-1.7l0.1-0.2h-1.6c0.1-0.4,1.2-3.8,1.2-3.8L495.3,139.3z
				 M492.4,142.5c1.1-0.8,2.2-1.8,3.1-2.9l0.4,0c-0.1,0.3-1.2,3.8-1.2,3.8h1.6c-0.1,0.3-0.4,1.4-0.4,1.4l-1.4-0.1l-2.7,8.4l-0.3,1.2
				c0,0.1,0.1,0.3,0.2,0.4l0.4,0.2l0.6-0.2l1.5-1.8l0.3,0.3c-0.6,0.8-1.3,1.6-2.1,2.2c-0.6,0.5-1.4,0.7-2.2,0.8
				c-0.5,0-1-0.1-1.4-0.4c-0.3-0.3-0.5-0.7-0.5-1.1l0.4-2l2.5-7.8h-1.8c0.1-0.2,0.2-0.8,0.2-0.8C489.5,144,492.4,142.5,492.4,142.5
				L492.4,142.5z"/>
		</g>
	</g>
</g>
</svg>
