<svg xmlns="http://www.w3.org/2000/svg" viewBox="0 0 708.72 151.5"><defs><style>.a{fill:#00467e;}.b{fill:#336798;}.c{fill:#346798;}.d{fill:#336698;}.e{fill:#7c94b9;}.f{fill:#2c6697;}.g{fill:#758eb3;}.h{fill:#889ebf;}.i{fill:#f4a023;}.j{fill:#f7b962;}.k{fill:#1c5d8f;}</style></defs><title>basler_logo</title><path class="a" d="M225.29,155.45c-2.06-4.14-4.18-8.24-6.17-12.41-1.15-2.4.28-4.52,3.33-5.06a19.17,19.17,0,0,1,3.22-.27c14.32,0,28.64,0,43-.1,5.67,0,11.35-.18,16.86-1.81a19.1,19.1,0,0,0,4.07-1.69c6.29-3.6,6.39-11,.21-14.77a30.42,30.42,0,0,0-10.1-3.5c-6.14-1.21-12.37-1.41-18.59-1.7-8.29-.4-16.6-.69-24.68-2.86a33.1,33.1,0,0,1-12.34-5.83A21.67,21.67,0,0,1,215.93,90,26.36,26.36,0,0,1,218,76.09c2.7-5.91,7.36-9.84,13.07-12.63a57,57,0,0,1,18-5c9.2-1.18,18.44-.72,27.67-.73,10.64,0,21.28,0,31.92,0,1.06,0,1.4.22,1.38,1.35-.08,3.43-.16,6.88,0,10.31.23,5.2-3.33,6.68-6.7,6.79s-6.64,0-10,0c-8.64,0-17.28-.06-25.91-.06a119.43,119.43,0,0,0-17.23.79c-3.6.52-7.18,1.14-10.33,3.14-2.71,1.72-3.77,4.15-3.13,7a5.57,5.57,0,0,0,3.28,3.73,27.65,27.65,0,0,0,8.34,2.42,160.06,160.06,0,0,0,17.77,1.48c11.31.61,22.48,2,33.05,6.46,7,2.94,12.53,7.48,14.9,14.91,2.8,8.75,2.39,17.35-2.66,25.3-3.11,4.88-7.94,7.64-13.2,9.68A65.86,65.86,0,0,1,280.45,155c-2,.19-4.06.32-6.1.48a.33.33,0,0,0-.35.24h-.72a3.15,3.15,0,0,0-1.92,0H238.48a2,2,0,0,0-1.17-.12H226.46A2.13,2.13,0,0,1,225.29,155.45Z" transform="translate(-0.64 -4.25)"/><path class="a" d="M121.07,116.25c2-4.38,4.29-8.63,6.5-12.91,6.3-12.26,13-24.32,19.09-36.68.71-1.43,1.42-2.86,2.09-4.3a7,7,0,0,1,6.14-4.31c4.07-.36,8.15-.15,12.23-.21.73,0,.8.54,1,1l13.28,26.44,34.81,69.32c.14.28.25.58.37.87a2.33,2.33,0,0,1-1.28.12H199.93a2.47,2.47,0,0,0-1.29.12h-.72c-3-.27-4.64-2.12-5.84-4.66-2.57-5.42-5.45-10.68-8.11-16.06a2,2,0,0,0-2.05-1.28c-12.59,0-25.19-.06-37.78.05-5.38,0-9.33,2.72-11.81,7.49-2.23,4.29-4.16,8.74-6.41,13-.29.55-.46,1.23-1.25,1.32H107a2.83,2.83,0,0,1-1.29-.1c-1.62-.5-2-1.43-1.15-3.15,1.56-3.22,3.18-6.41,4.77-9.62q3.19-6.44,6.37-12.86c1.55-3.1,4.13-5.26,6.8-7.29a41.15,41.15,0,0,1,19.2-7.68,33.79,33.79,0,0,1,5.12-.26q13,0,25.91,0c1.37,0,1.37,0,.75-1.25L160,86.35c-.18-.35-.38-.69-.64-1.17-1.75,3.15-3.43,6.18-5.1,9.21-2.43,4.4-4.86,8.79-7.26,13.21a1.5,1.5,0,0,1-1.36.91,50.84,50.84,0,0,0-16.12,3.69,48,48,0,0,0-8,4.37C121.27,116.73,121.05,116.69,121.07,116.25Z" transform="translate(-0.64 -4.25)"/><path class="a" d="M709.36,28.49c-.64,1.13-.56,2.42-.84,3.64-1.82,7.92-5.27,15.17-9.27,22.17-7.5,13.12-16.64,25.06-26.43,36.53-5.24,6.14-10.69,12.09-16.46,17.74-1.43,1.39-2.93,2.72-4.42,4a3.7,3.7,0,0,1-1.77,1.1,3.8,3.8,0,0,1,.6-2c2.94-6,5.94-12,8.83-18,5.41-11.32,10.41-22.81,13.62-35A72.76,72.76,0,0,0,676,38.83c-.09-5.57-1.06-11-3.86-15.87-3.71-6.49-9.54-10.11-16.59-12-1.46-.39-2.94-.71-4.42-1.07,0-.42.35-.33.58-.4a120.28,120.28,0,0,1,24.56-5c.19,0,.4,0,.47-.25h1a1.8,1.8,0,0,0,1.44,0h6.48c.39.25.83.07,1.24.12A25.71,25.71,0,0,1,701.6,9a17.51,17.51,0,0,1,7.33,10.07c.25,1,.14,2,.43,2.93Z" transform="translate(-0.64 -4.25)"/><path class="b" d="M504.91,155.47a.41.41,0,0,0,0,.22H411.52l0-.25a2.86,2.86,0,0,1,2.07-.38h89C503.39,155.07,504.23,154.86,504.91,155.47Z" transform="translate(-0.64 -4.25)"/><path class="b" d="M321.76,155.69v-.24a3.07,3.07,0,0,1,2.19-.39h73.65c.74,0,1.54-.18,2.18.41a.41.41,0,0,0,0,.22Z" transform="translate(-0.64 -4.25)"/><path class="b" d="M.64,155.45h73l1.68,0c0,.06.07.11,0,.15a.1.1,0,0,1-.07.06q-36.78,0-73.56,0C1.37,155.67.91,156,.64,155.45Z" transform="translate(-0.64 -4.25)"/><path class="c" d="M607.84,155.69c.39-.43.9-.23,1.36-.23h20.48l.24.24Z" transform="translate(-0.64 -4.25)"/><path class="c" d="M124.91,155.44l0,.25h-19.2a.26.26,0,0,0,0-.23Z" transform="translate(-0.64 -4.25)"/><path class="b" d="M198.64,155.69c.34-.42.82-.23,1.23-.23q8.37,0,16.73,0l0,.25Z" transform="translate(-0.64 -4.25)"/><path class="c" d="M533.46,155.46a.26.26,0,0,0,0,.23H517.6l0-.25Z" transform="translate(-0.64 -4.25)"/><path class="d" d="M225.29,155.45c4,0,8,0,12,0,.42,0,.89-.17,1.24.23h-13.2Z" transform="translate(-0.64 -4.25)"/><path class="e" d="M271.36,155.69a1.82,1.82,0,0,1,1.92,0Z" transform="translate(-0.64 -4.25)"/><path class="f" d="M679.12,4.25a1.07,1.07,0,0,1-1.44,0Z" transform="translate(-0.64 -4.25)"/><path class="g" d="M75.28,155.69a1.52,1.52,0,0,1,0-.21c.47,0,1-.24,1.41.21Z" transform="translate(-0.64 -4.25)"/><path class="h" d="M686.8,4.25a.28.28,0,0,0,0,.22c-.42,0-.87.16-1.22-.22Z" transform="translate(-0.64 -4.25)"/><path class="a" d="M504.91,155.47l-28.32,0h-65c0-.52,0-1,0-1.56,0-29.51.05-59,0-88.55,0-5,3.29-6.83,6.61-7.3a23.08,23.08,0,0,1,3.11-.18q41.51,0,83,0c1,0,1.42.19,1.4,1.34-.08,4,0,8.08,0,12.12S503.79,77,499.88,77q-24,0-48,0c-4.88,0-9.76-.22-14.63.18-3.53.28-5.48,1.89-5.36,5.62.12,3.55.08,7.12,0,10.67,0,1.16.2,1.52,1.46,1.52,21.72,0,43.44,0,65.15-.06,1.18,0,1.55.22,1.53,1.47-.09,4.28,0,8.56,0,12.84,0,3.35-1.54,4.9-4.91,4.9q-30.84,0-61.67,0c-1.16,0-1.54.2-1.53,1.47.08,6.52.07,13,0,19.56,0,1.12.34,1.28,1.35,1.28q37.19,0,74.39-.05c1.19,0,1.54.25,1.51,1.5-.09,4.07,0,8.15,0,12.23C509.09,153.28,507.64,155.09,504.91,155.47Z" transform="translate(-0.64 -4.25)"/><path class="a" d="M399.79,155.47l-44.94,0H321.77c0-.48-.06-1-.06-1.44q0-47.34,0-94.67c0-1.17.21-1.56,1.48-1.53,3.92.1,7.84,0,11.76,0,3.13,0,6.52,2.58,7.05,5.3a6.75,6.75,0,0,1,.1,1.19v64.07a19.4,19.4,0,0,0-.05,2.15c.38,3.35,2.53,5.38,6,5.69,1.31.11,2.63.18,3.94.18q25.56,0,51.12,0c1.08,0,1.43.24,1.39,1.37-.15,4.19.17,8.39-.19,12.59A5.26,5.26,0,0,1,399.79,155.47Z" transform="translate(-0.64 -4.25)"/><path class="i" d="M598.94,37.34c4.79-2.94,9.75-5.6,14.7-8.25C622.4,24.4,631.29,20,640.38,16a6.54,6.54,0,0,1,4.28-.36,37.32,37.32,0,0,1,17.42,8.77,23,23,0,0,1,4.38,6.24,17.31,17.31,0,0,1-3.87-.52,106.8,106.8,0,0,0-14.07-1.17c-16.72-.29-32.83,2.91-48.51,8.51-.19.07-.38.12-.57.18S598.92,37.79,598.94,37.34Z" transform="translate(-0.64 -4.25)"/><path class="j" d="M598.94,37.34c.09.24.3.24.5.27l-2.05.9a3.15,3.15,0,0,1-.56.05A7.12,7.12,0,0,1,598.94,37.34Z" transform="translate(-0.64 -4.25)"/><path class="k" d="M121.07,116.25a.56.56,0,0,0,.53.32,2.57,2.57,0,0,1-1.24.81Z" transform="translate(-0.64 -4.25)"/><path class="a" d="M.64,63.77A24,24,0,0,1,2,61.6c2.13-2.77,5.15-3.72,8.45-3.73q30.83-.07,61.66,0c5.54,0,11,.74,16,3.52C97.92,67,102.8,75.46,102.41,86.81a24.9,24.9,0,0,1-6,15.65c-.34.4-.63.63,0,1.11,6.76,5.39,10,12.53,10.4,21.06.38,9.09-2.17,17.11-8.94,23.46-4,3.77-9,5.6-14.34,6.63a50.09,50.09,0,0,1-5.58.72c-.19,0-.41,0-.47.25h-.72c-.56-.26-1.15-.06-1.72-.12H2.06a3,3,0,0,1-1.42-.11Zm65,72.65c3.56,0,7.12.09,10.67-.18a11.91,11.91,0,0,0,6.4-2c2.82-2.1,3.64-5.1,3.62-8.44,0-5.06-2.65-8.54-7.47-10a38.63,38.63,0,0,0-11-1.36c-15.23,0-30.47,0-45.7,0-.94,0-1.11.29-1.11,1.15,0,6.56,0,13.12,0,19.67,0,1.06.36,1.22,1.3,1.22,8.48,0,17,0,25.43,0C53.71,136.42,59.67,136.43,65.62,136.42Zm1.26-41.27a46.15,46.15,0,0,0,6.32-.41c5.47-.74,8.62-4,8.49-9-.1-4-2-8-7.55-8.56-2.11-.19-4.21-.38-6.33-.38q-19,0-38,0c-1.28,0-2.56.06-3.83.18-3.35.32-4.91,2.06-4.91,5.42,0,3.79,0,7.59,0,11.39,0,1,.19,1.42,1.35,1.41,7.59-.06,15.19,0,22.79,0Z" transform="translate(-0.64 -4.25)"/><path class="a" d="M517.63,155.44c0-.48,0-1,0-1.44,0-29.55.07-59.11-.06-88.67,0-5.34,3.63-7.49,7.6-7.49H554c10.64,0,21.28,0,31.92,0a46.66,46.66,0,0,1,12.32,1.5c9.08,2.53,15.14,8.4,18.22,17.16,3.49,9.91,2.58,19.5-3.45,28.29-4,5.8-9.75,9.06-16.46,10.79-1.76.45-1.75.42-.54,1.78q15.72,17.7,31.42,35.43a14,14,0,0,1,2.21,2.64,2.57,2.57,0,0,1-1.29.11H609.13a2.47,2.47,0,0,0-1.29.12h-1a24.58,24.58,0,0,1-4.27-1c-2.69-1.14-4.54-3.19-6.41-5.28-3.49-3.9-6.93-7.86-10.39-11.78-3.73-4.23-7.43-8.47-11.15-12.7-1.84-2.11-3.7-4.2-5.53-6.31a2.21,2.21,0,0,0-1.7-.73c-9.27-.43-18.55-.17-27.82-.23-1.38,0-1.51.15-1.51,1.65q0,15,0,30.11a8.56,8.56,0,0,1-.35,2.84,4.6,4.6,0,0,1-4.57,3.34H518.92A2.37,2.37,0,0,1,517.63,155.44ZM565.27,77c-7.16,0-14.31,0-21.47,0-4,0-6,2.1-6,6,0,4.6,0,9.2,0,13.79,0,1.08.28,1.33,1.33,1.32,13.95,0,27.9,0,41.85,0a42,42,0,0,0,7.75-.63c4.06-.77,7.14-2.68,8.24-6.93a14.76,14.76,0,0,0,.46-2.71c.25-3.73-1.19-8.84-6.78-10.21a17.48,17.48,0,0,0-4.14-.55q-10.61,0-21.22,0Z" transform="translate(-0.64 -4.25)"/></svg>