<svg xmlns="http://www.w3.org/2000/svg" viewBox="0 0 86 18.4">
  <defs>
    <style>
      .a {
        fill: #01979a;
      }

      .b {
        fill: #d2f6f7;
      }

      .c {
        fill: #01989a;
      }

      .d {
        fill: #03989b;
      }

      .e {
        fill: #04989b;
      }

      .f {
        fill: #519696;
      }

      .g {
        fill: #51d8da;
      }

      .h {
        fill: #0f9894;
      }
    </style>
  </defs>
  <title>fastwel-logo-green</title>
  <g>
    <path class="a" d="M4.5,7.27c.09,0,.09-.1.12-.16a1.19,1.19,0,0,1,1.1-.64H9.59a1.62,1.62,0,0,1,.44.07,1.11,1.11,0,0,1,.76,1.24,1,1,0,0,1-1,1c-.57.06-1.15,0-1.72,0H7.14c-.11,0-.16,0-.16.16q0,.81,0,1.62c0,.14.06.16.18.16H9.29a1.08,1.08,0,0,1,1.12.74A1.12,1.12,0,0,1,9.36,13c-.71,0-1.42,0-2.13,0C7,13,7,13.07,7,13.27c0,1,0,2,0,3a1.22,1.22,0,0,1-1.84,1.05,1.12,1.12,0,0,1-.55-.64.91.91,0,0,1-.08-.13Z" transform="translate(-4.5 -0.96)"/>
    <path class="b" d="M4.5,16.59c.07,0,.07.08.08.13H4.5Z" transform="translate(-4.5 -0.96)"/>
    <path class="a" d="M25.38,10.85a1,1,0,0,1-1.28.8c-.43-.14-.81-.39-1.25-.49a1,1,0,0,0-.69,0,.44.44,0,0,0-.3.37.4.4,0,0,0,.19.4,2.51,2.51,0,0,0,.74.35,12.28,12.28,0,0,1,1.58.67,2.41,2.41,0,0,1,0,4.19,3.93,3.93,0,0,1-2.51.46A4.38,4.38,0,0,1,19.91,17a1.19,1.19,0,0,1-.09-2A1.14,1.14,0,0,1,21,15c.33.13.63.32,1,.42a1.8,1.8,0,0,0,.92.09c.22-.05.39-.14.43-.38A.47.47,0,0,0,23,14.6a15.61,15.61,0,0,0-1.47-.6,6.36,6.36,0,0,1-1.19-.61,2,2,0,0,1-.77-1.94,2.8,2.8,0,0,1,2.37-2.4,4,4,0,0,1,2.65.42,1.67,1.67,0,0,1,.75.78l0,0a1,1,0,0,1,1.14-1c.4,0,.4,0,.4-.41V7.62a1.21,1.21,0,0,1,1.2-1.21,1.18,1.18,0,0,1,1.19,1.21q0,.72,0,1.44c0,.14,0,.17.17.17a3.45,3.45,0,0,1,1.06.07c.17.06.32.25.45.24s.26-.22.42-.29a1.24,1.24,0,0,1,1.75.78c.34,1.24.73,2.47,1.1,3.7a1.29,1.29,0,0,0,.06.12c.18-.56.35-1.1.53-1.64.26-.77.46-1.56.77-2.32a1.13,1.13,0,0,1,1.54-.67,1.18,1.18,0,0,1,.59.65c.28.65.45,1.34.67,2s.42,1.29.67,1.94c.12-.39.24-.79.35-1.18.27-.88.53-1.76.8-2.64a1.08,1.08,0,0,1,1-.86,1.17,1.17,0,0,1,1.25.6,1.49,1.49,0,0,1,0,1.24c-.33.95-.67,1.9-1,2.84l-.9,2.52a1.49,1.49,0,0,1-1.85,1.12,1.28,1.28,0,0,1-1-.93c-.33-.93-.63-1.87-.94-2.8,0-.09-.07-.19-.12-.33l-.31.91c-.25.76-.5,1.51-.76,2.26a1.26,1.26,0,0,1-1.2.92,1.38,1.38,0,0,1-1.46-.86c-.29-.66-.5-1.35-.75-2-.41-1.12-.81-2.25-1.21-3.38l-.05-.08a1.88,1.88,0,0,1-1.38.3c-.2,0-.26,0-.26.25q0,2.31,0,4.62a1.16,1.16,0,0,1-.73,1.09,1.19,1.19,0,0,1-1.36-.31,1.24,1.24,0,0,1-.3-.82c0-1.53,0-3.07,0-4.6,0-.18,0-.25-.23-.23a1.6,1.6,0,0,1-.65-.08.88.88,0,0,1-.58-.55s-.06-.05-.05-.1S25.41,10.81,25.38,10.85Z" transform="translate(-4.5 -0.96)"/>
    <path class="a" d="M51.22,11.51V6.85a1.22,1.22,0,0,1,.62-1.13,1.16,1.16,0,0,1,1.22,0,1.22,1.22,0,0,1,.58,1.13v9.31a1.21,1.21,0,1,1-2.42,0Z" transform="translate(-4.5 -0.96)"/>
    <path class="c" d="M61.25,15.45a2.41,2.41,0,0,1,.28-1.62,13.68,13.68,0,0,1,.67-1.39c.09-.16,0-.2-.11-.24a8.82,8.82,0,0,0-2.56-.14c-.77,0-1.54.12-2.31.19a.17.17,0,0,1-.21-.13c0-.11,0-.13.11-.19a2.79,2.79,0,0,1,1.28-.4,20,20,0,0,1,3.18-.21c.35,0,.7,0,1.05,0a.29.29,0,0,0,.3-.16,14,14,0,0,1,2.12-2.78l.37-.34a5,5,0,0,0-1.39,0,16.38,16.38,0,0,0-3.76,1,23.47,23.47,0,0,1-3,.93,3.44,3.44,0,0,1-1-.08,1.67,1.67,0,0,1,.49-.26,30.75,30.75,0,0,1,5.34-1.87,21.68,21.68,0,0,1,6-.67.66.66,0,0,1,.52.46c0,.11-.08.08-.13.09a6.46,6.46,0,0,0-2.49,1,8,8,0,0,0-2.35,2.59c-.74,1.2-1.32,2.49-2,3.7l-.3.49A.09.09,0,0,1,61.25,15.45Z" transform="translate(-4.5 -0.96)"/>
    <path class="d" d="M71.48,6.43a.55.55,0,0,1-.5-.56,1.11,1.11,0,0,1,.13-.36.41.41,0,0,1,.58-.2c.12.05.36,0,.35.2s-.24.12-.37.17-.24,0-.25.13,0,.29.2.31.07.09.06.17S71.56,6.43,71.48,6.43Z" transform="translate(-4.5 -0.96)"/>
    <path class="e" d="M76.73,3.87c-.29,0-.38,0-.43.28s0,.17.12.2.15.2.13.3-.16.07-.24,0a.54.54,0,0,1-.37-.77,1,1,0,0,1,.37-.43.44.44,0,0,1,.57.19C76.93,3.84,76.9,3.88,76.73,3.87Z" transform="translate(-4.5 -0.96)"/>
    <path class="c" d="M70.77,8.93c.1,0,.1.08.08.15s-.07,0-.11,0A.2.2,0,0,1,70.77,8.93Z" transform="translate(-4.5 -0.96)"/>
    <path class="f" d="M61.25,15.45h.11s0,.09-.06.09S61.24,15.49,61.25,15.45Z" transform="translate(-4.5 -0.96)"/>
    <path class="g" d="M71.17,9.3s-.12,0-.1-.08l.13,0Z" transform="translate(-4.5 -0.96)"/>
    <path class="c" d="M78,1a2.76,2.76,0,0,1,1.75,1.5,2.78,2.78,0,0,1,0,2.36,2.37,2.37,0,0,0-.18.59c-.07.45-.32.84-.41,1.29,0,.1-.08.09-.15.06l-.49-.25c-.09,0-.15,0-.21,0-.2.28-.41.55-.61.84a2.28,2.28,0,0,1-.29.33.55.55,0,0,1-.56-.15c-.32-.24-.32-.25-.63,0h0s-.06,0-.07,0c-.17.25-.35.19-.57.06s-.15-.12-.1-.24a2,2,0,0,1,.09-.26.81.81,0,0,1,1.07-.54,1.17,1.17,0,0,1,.24.09c.32.13.33.14.58-.13s.5-.49.73-.76.23-.18.39-.07.25.08.25-.12a.58.58,0,0,1,0-.19.58.58,0,0,0-.27-.75c-.08-.06-.15-.14-.23-.21a.15.15,0,0,1,0-.23c.06-.1.11-.07.19,0l.48.17c.11,0,.17,0,.2-.11s.11-.44.16-.66,0-.13-.11-.1a2.08,2.08,0,0,1-1.08,0,.64.64,0,0,1-.42-.29,7.91,7.91,0,0,0-.48-.7,1.14,1.14,0,0,0-.35-.34.17.17,0,0,1-.1-.2c0-.14.08-.18.2-.16a1.12,1.12,0,0,1,.67.3c.15.15.31.29.45.46a.92.92,0,0,0,.43.29.35.35,0,0,0,.35-.1c.1-.08,0-.18,0-.27A.88.88,0,0,0,78,1.84a2.51,2.51,0,0,0-.82,0,2.2,2.2,0,0,1-.44,0c-.18,0-.27.18-.38.29a7.3,7.3,0,0,0-.64.9,3.1,3.1,0,0,1-.66.74S75,3.9,75,4a3.65,3.65,0,0,1,.08,2.48,4.56,4.56,0,0,1-.3,1,1.28,1.28,0,0,1-.11.2c-.16.26-.36.44-.69.33-.12,0-.18,0-.23.11a3.26,3.26,0,0,1-.51.76.82.82,0,0,1-.65.3,4,4,0,0,1-.49,0,1.29,1.29,0,0,0-.9.16s-.09,0-.13,0a.84.84,0,0,1-.23-.46c0-.16.15-.18.19-.29a1.48,1.48,0,0,1,1-.09A.89.89,0,0,0,73,8a5,5,0,0,0,.55-.75.26.26,0,0,1,.31-.15.29.29,0,0,0,.41-.24c0-.06,0-.11,0-.17.13-.41.13-.41-.25-.63L73.79,6c-.07,0-.13-.08-.07-.18s.07-.14.18-.1.29.05.44.1.19,0,.18-.15a2.42,2.42,0,0,1,0-.27,1.2,1.2,0,0,1-.67.07,1.08,1.08,0,0,1-.91-.59,2.59,2.59,0,0,0-.81-1,.26.26,0,0,0-.32,0,2.55,2.55,0,0,0-1.12,1.4c-.23.57-.39,1.18-.68,1.74a2.81,2.81,0,0,1-.57.76.58.58,0,0,1-.57,0,.54.54,0,0,1,0-.55,4.06,4.06,0,0,0,.85-1.52,6.62,6.62,0,0,0-1.48.09c-1,.15-2.05.42-3.08.65a8.56,8.56,0,0,1-1.42.22c-.19,0-.37,0-.61,0a4.37,4.37,0,0,1,.75-.45,12.63,12.63,0,0,1,3.44-1c.83-.14,1.66-.25,2.49-.31a.33.33,0,0,0,.33-.23,3,3,0,0,1,2-1.76,2.36,2.36,0,0,1,2.47.57c.1.1.13.09.19,0,.23-.4.46-.8.7-1.19A2.32,2.32,0,0,1,76.7,1C76.77,1,76.87,1,77,1h.77C77.8,1,77.9,1,78,1ZM72.64,3.63s-.08,0-.07,0,.05,0,.08.06a1.59,1.59,0,0,1,.59.59,1.8,1.8,0,0,0,.33.4.51.51,0,0,0,.59,0,.44.44,0,0,0,.06-.52,1.15,1.15,0,0,0-.88-.49A5.36,5.36,0,0,0,72.64,3.63Z" transform="translate(-4.5 -0.96)"/>
    <path class="a" d="M65.11,19.36a6.2,6.2,0,0,0-.86-.67c-.87-.66-1.74-1.32-2.62-2-.13-.09-.16-.14,0-.27.43-.39.43-.4.88,0L64.59,18c.18.15.39.26.57.4s.21.08.33,0a10.27,10.27,0,0,1,2.43-1.69,8.3,8.3,0,0,1,3.46-.83c1.23,0,2.45.1,3.68.17a21.68,21.68,0,0,0,4.41-.1.55.55,0,0,1,.64.39c0,.11,0,.09-.08.1a7.41,7.41,0,0,1-1.31.26,24.41,24.41,0,0,1-4.36-.06c-.47,0-.94-.06-1.42-.09a.3.3,0,0,0-.16.05,10.13,10.13,0,0,0-3,2.4l-.27.34h-.13c-.6-.27-1.14-.64-1.71-1l-.06,0a.63.63,0,0,0-.82,0c-.47.3-.95.59-1.41.91a1.26,1.26,0,0,1-.26.13Zm4.13-1c.1,0,.15,0,.21-.07a6.17,6.17,0,0,1,.88-.89l.8-.73,0-.05a10,10,0,0,0-3.23,1.09C68.36,17.94,68.79,18.17,69.24,18.36Z" transform="translate(-4.5 -0.96)"/>
    <path class="a" d="M16.38,16.75a2.38,2.38,0,0,1-1,.74,3.25,3.25,0,0,1-3.34-.8A4.48,4.48,0,0,1,10.64,13a4.21,4.21,0,0,1,1.64-3.27,3.16,3.16,0,0,1,3.27-.47,1.86,1.86,0,0,1,.69.52c.11.13.15.11.24,0a1.2,1.2,0,0,1,1.95-.14,1.32,1.32,0,0,1,.28.85c0,1.93,0,3.86,0,5.8A1.17,1.17,0,0,1,18,17.37a1.14,1.14,0,0,1-1.26-.14A1.68,1.68,0,0,1,16.38,16.75Zm-.3-4.51a1.48,1.48,0,0,0-1.38-1,1.44,1.44,0,0,0-1.41.87,2.53,2.53,0,0,0,0,2.26,1.43,1.43,0,0,0,1.3.9,1.45,1.45,0,0,0,1.44-.8,2.47,2.47,0,0,0,.29-1.17A2.53,2.53,0,0,0,16.08,12.24Z" transform="translate(-4.5 -0.96)"/>
    <path class="a" d="M47.4,14.1H45.19c-.18,0-.2.07-.17.22a1.46,1.46,0,0,0,1.21,1,3.35,3.35,0,0,0,2.3-.39l.42-.2a1,1,0,0,1,1.2.26,1.1,1.1,0,0,1,0,1.26,2.16,2.16,0,0,1-1,.8,5.69,5.69,0,0,1-3.61.44,3.77,3.77,0,0,1-3-2.73,4.49,4.49,0,0,1,.62-4.13,4,4,0,0,1,7.23,2.52.81.81,0,0,1-.91.89c-.73,0-1.45,0-2.18,0Zm-2.17-2.39h0c-.08.05,0,.15-.09.22s-.07.2-.1.3,0,.23.17.23h2.68c.14,0,.21,0,.18-.19A1.7,1.7,0,0,0,46.57,11a1.65,1.65,0,0,0-1.16.52A1,1,0,0,0,45.23,11.71Z" transform="translate(-4.5 -0.96)"/>
    <path class="h" d="M45.41,11.53c0,.07-.08.17-.18.18S45.29,11.53,45.41,11.53Z" transform="translate(-4.5 -0.96)"/>
    <path class="h" d="M45.23,11.7a.34.34,0,0,1-.09.22C45.16,11.84,45.07,11.72,45.23,11.7Z" transform="translate(-4.5 -0.96)"/>
    <path class="c" d="M71,8.49v0c-.23.25-.06.48,0,.71,0,0,.08,0,.1.08a7.31,7.31,0,0,1,1.64,1.17,15.07,15.07,0,0,0,1.89,1.58,9.69,9.69,0,0,0,3.41,1.3c.85.17,1.7.3,2.55.48a5.36,5.36,0,0,0,1.74-.11,1.59,1.59,0,0,1,.37-.06.55.55,0,0,0,.59-.37c.25-.51.53-1,.8-1.5a.41.41,0,0,1,.62-.15c.22.16.43.34.65.51a.17.17,0,0,1,.06.22,5.88,5.88,0,0,1-.73,1.8.63.63,0,0,0-.06.33,3,3,0,0,1-.26,1.21.77.77,0,0,1-.61.48c-.12,0-.16.1-.19.2a5.46,5.46,0,0,1-.43,1.1,1.18,1.18,0,0,1-.78.63.7.7,0,0,1-.82-.76,7.62,7.62,0,0,1,.27-1.07c0-.05.1-.14,0-.16s-.23-.06-.3.07,0,.11-.08.16c-.31.28-.34.27-.45-.12a7.43,7.43,0,0,0-.57-1.6.69.69,0,0,0-.65-.4,10.08,10.08,0,0,1-4.38-1A15.14,15.14,0,0,1,73,11.53a15.06,15.06,0,0,0-3-1.84.43.43,0,0,1-.2-.47A.42.42,0,0,1,70.25,9l.49.13c.06,0,.09-.1,0-.17S70.78,8.54,71,8.49Zm12.49,7,.29-.24c.06-.05.1-.08,0-.15s-.07-.18,0-.24.13-.18,0-.27a.12.12,0,0,1,0-.19c.09-.12,0-.16-.08-.21a1.41,1.41,0,0,0-.93,0,8.69,8.69,0,0,1-1.56.39c-.12,0-.08.09,0,.15a4.28,4.28,0,0,1,.21.78c0,.11.07.12.16.1a1.94,1.94,0,0,1,.59,0c.41.06.81.13,1.22.18.1,0,.25.07.27-.07s-.13-.11-.22-.15S83.48,15.48,83.52,15.45Zm-1.18,2.09a.16.16,0,0,0,.19-.11,6,6,0,0,0,.44-1c0-.07.12-.16,0-.2s-.25-.09-.33,0a3.09,3.09,0,0,0-.42,1.12C82.25,17.45,82.26,17.53,82.34,17.54Zm1.85-3.79a6.77,6.77,0,0,0,.59-1.21c0-.09-.06-.12-.11-.16s-.09,0-.12.06a6.39,6.39,0,0,0-.49,1.21c0,.08,0,.1.08.12Z" transform="translate(-4.5 -0.96)"/>
    <path class="a" d="M90.45,8.54c.09.09,0,.17,0,.26-.21.55-.43,1.09-.65,1.64a.42.42,0,0,0,0,.25,2.57,2.57,0,0,1,0,1.07.85.85,0,0,1-.69.72.29.29,0,0,0-.23.22,5.29,5.29,0,0,1-.49,1.21,1.08,1.08,0,0,1-.83.56.72.72,0,0,1-.74-.79,7.07,7.07,0,0,1,.3-1.11c-.21.09-.46,0-.54.3,0,.1-.19,0-.29,0s-.2,0-.16-.2a2.4,2.4,0,0,0-.06-1.22.36.36,0,0,0-.38-.29l-1,0c-.79,0-1.59,0-2.38,0a6.33,6.33,0,0,1-2.8-.76c-.67-.33-1.31-.69-2-1a4.59,4.59,0,0,0-2-.4,1.31,1.31,0,0,1-.86-.18.39.39,0,0,1-.23-.35c0-.18.14-.27.3-.32a2.78,2.78,0,0,1,1.43-.06,6.85,6.85,0,0,1,1.31.41,35.84,35.84,0,0,0,3.59,1.72,7.4,7.4,0,0,0,2.8.35,13.64,13.64,0,0,1,1.91-.06,4.31,4.31,0,0,0,1.92-.42,1,1,0,0,0,.68-.66A10.19,10.19,0,0,1,89,8.12.5.5,0,0,1,89.76,8Zm-3,3.51h.32a2.28,2.28,0,0,0,1.09-.23c.07,0,.18-.08.18-.17a5.86,5.86,0,0,1,.13-.73c0-.2,0-.32-.26-.35a1.88,1.88,0,0,0-.53,0c-.63.1-1.18.44-1.8.57-.08,0-.07.07-.05.13a4.16,4.16,0,0,1,.12.69c0,.09,0,.12.12.12h.68Zm.42.56a3,3,0,0,0-.44,1.09.18.18,0,0,0,.11.19.15.15,0,0,0,.17-.09,6,6,0,0,0,.55-1.24C88.16,12.57,88,12.48,87.91,12.61Zm1.43-2.72c.12-.35.23-.7.35-1,0-.1,0-.16-.07-.2s-.14,0-.17.1c-.14.31-.27.62-.4.94a.21.21,0,0,0,.18.3C89.33,10,89.33,9.94,89.34,9.89Z" transform="translate(-4.5 -0.96)"/>
  </g>
</svg>
