<svg xmlns="http://www.w3.org/2000/svg" viewBox="0 0 27 14.82">
  <defs>
    <style>
      .a {
        fill: #36801c;
      }

      .b {
        fill: #13388f;
      }

      .c {
        fill: #b71c22;
      }

      .d {
        fill: #366b34;
      }

      .e {
        fill: #376b35;
      }

      .f {
        fill: #3c6f3a;
      }

      .g {
        fill: #40723e;
      }

      .h {
        fill: #3d703c;
      }

      .i {
        fill: #38811f;
      }
    </style>
  </defs>
  <title>iei_logo</title>
  <g>
    <path class="a" d="M10.59,6V1.47a.84.84,0,0,1,1-1h6.09c.2,0,.28,0,.28.27,0,.87,0,1.73,0,2.6,0,.19-.06.22-.23.22H13.87c-.17,0-.24,0-.23.22a2.81,2.81,0,0,1,0,.58c0,.17.06.21.22.21h3.68c.19,0,.25,0,.25.24,0,.83,0,1.66,0,2.48,0,.21-.06.25-.25.25H13.88c-.18,0-.26,0-.24.23s-.1.58.06.74.47,0,.72,0h3.15c.18,0,.22.05.22.23,0,.84,0,1.68,0,2.53,0,.16,0,.21-.21.21H11.47a.82.82,0,0,1-.88-.91Z" transform="translate(-1.5 -0.09)"/>
    <path class="a" d="M9.43,7.54v3.34c0,.45-.18.62-.63.62H7a.52.52,0,0,1-.59-.59V4.14a.5.5,0,0,1,.57-.57H8.85c.41,0,.58.17.58.58Z" transform="translate(-1.5 -0.09)"/>
    <path class="a" d="M19.15,8V5.13c0-.43.13-.56.55-.56h2c.38,0,.53.15.53.52V11c0,.36-.15.52-.51.52H19.65c-.34,0-.49-.15-.5-.5Z" transform="translate(-1.5 -0.09)"/>
    <path class="b" d="M20.7.09a1.81,1.81,0,0,1,1.7,1.06,1.55,1.55,0,0,1-.28,1.79,2,2,0,0,1-2.58.28,1.69,1.69,0,0,1-.67-1.84A1.84,1.84,0,0,1,20.53.09Z" transform="translate(-1.5 -0.09)"/>
    <path class="c" d="M7.89,3.09c-.33,0-.66,0-1,0a.5.5,0,0,1-.54-.52c0-.51,0-1,0-1.55A.49.49,0,0,1,6.9.5q1,0,2,0A.49.49,0,0,1,9.43,1V2.56a.49.49,0,0,1-.54.53C8.56,3.1,8.22,3.09,7.89,3.09Z" transform="translate(-1.5 -0.09)"/>
    <path class="d" d="M26.51,14.17c0-.23,0-.46,0-.69s.14-.35.39-.35h.76c.26,0,.36.1.36.34s0,.4,0,.6-.14.35-.4.36h-.36c-.09,0-.22,0-.21-.14s0-.23.22-.22a.34.34,0,0,0,.27-.51c-.1-.13-.27,0-.4-.05s-.13.07-.14.15c0,.34,0,.69,0,1s-.21.19-.36.21-.13-.13-.13-.23l0-.5Z" transform="translate(-1.5 -0.09)"/>
    <path class="d" d="M21.93,13.58c0-.2,0-.4,0-.59a.34.34,0,0,1,.37-.33h.81a.38.38,0,0,1,.31.56c-.08.11-.22,0-.34,0s-.12,0-.13-.08c0-.28-.26-.12-.4-.15s-.15.12-.15.21,0,.42,0,.62,0,.22.13.21.33.11.41-.11.28-.1.41-.11.07.13.07.2c0,.28-.12.38-.4.38h-.74c-.28,0-.38-.12-.37-.4s0-.3,0-.45Z" transform="translate(-1.5 -0.09)"/>
    <path class="d" d="M3,14.43H2.51c-.23,0-.35-.12-.34-.36s0-.69.05-1a.35.35,0,0,1,.4-.37h1c.14,0,.17.06.15.17s0,.21-.15.2H2.9c-.13,0-.21,0-.21.19s0,.46,0,.69.07.18.19.18h.7c.11,0,.15,0,.14.15s0,.22-.15.21Z" transform="translate(-1.5 -0.09)"/>
    <path class="d" d="M10.05,14.43H9.52a.27.27,0,0,1-.29-.28,5.78,5.78,0,0,1,0-.72.31.31,0,0,1,.36-.3h.81a.3.3,0,0,1,.33.32c0,.09,0,.18,0,.26s-.07.27-.27.26-.25-.05-.22-.23,0-.26-.21-.24-.36-.06-.35.24,0,.34.34.34h.55c.12,0,.15.06.13.16s0,.2-.14.2Z" transform="translate(-1.5 -0.09)"/>
    <path class="d" d="M19.88,13.13h.38c.27,0,.38.11.37.38a7,7,0,0,1,0,.8c0,.23-.21.08-.32.11s-.17,0-.16-.12a4.26,4.26,0,0,0,0-.5c0-.13.08-.3-.17-.3s-.36,0-.38.28,0,.34,0,.5-.23.11-.35.14-.14-.07-.14-.17,0-.48,0-.71.13-.41.44-.41Z" transform="translate(-1.5 -0.09)"/>
    <path class="d" d="M7.12,13.13H7.5c.24,0,.35.11.35.35l0,.79c0,.28-.24.12-.36.15s-.14-.08-.13-.18l0-.57c0-.13,0-.16-.16-.17-.39,0-.39,0-.4.36,0,.11,0,.22,0,.33s-.07.24-.26.25-.25-.07-.23-.26,0-.44,0-.66.14-.39.43-.39Z" transform="translate(-1.5 -0.09)"/>
    <path class="d" d="M8,13.49c0-.23,0-.47,0-.69s.23-.1.35-.14.14.07.13.16,0,.11,0,.17,0,.15.11.14a1.61,1.61,0,0,1,.22,0c.11,0,.24-.05.23.16s-.07.24-.24.21h0c-.09,0-.24-.05-.28.05a.86.86,0,0,0,0,.45c.05.14.21.08.32.07s.23.06.21.23,0,.13-.14.13H8.35c-.25,0-.36-.12-.35-.37,0-.1,0-.19,0-.29s0-.19,0-.28Z" transform="translate(-1.5 -0.09)"/>
    <path class="d" d="M16.09,14.43h-.24c-.21,0-.33-.1-.32-.3,0-.45,0-.9.05-1.36,0-.22.21-.08.32-.11s.17,0,.16.14,0,.08,0,.12,0,.24.2.21a.33.33,0,0,1,.14,0c.08,0,.23-.08.21.12s0,.3-.22.25h0c-.11,0-.27-.05-.31,0A.67.67,0,0,0,16,14c.05.18.24.09.36.09s.19.07.18.21,0,.16-.16.15Z" transform="translate(-1.5 -0.09)"/>
    <path class="e" d="M1.53,13.59c0-.26,0-.52.05-.78s.22-.11.34-.15.14.08.14.18c0,.47-.05.95-.07,1.42,0,.29-.22.14-.35.16s-.14-.09-.13-.19l0-.64Z" transform="translate(-1.5 -0.09)"/>
    <path class="e" d="M4.35,13.12c0,.36,0,.73,0,1.09s-.21.2-.36.22-.13-.14-.13-.23c0-.46.05-.91.06-1.36,0-.28.19-.16.31-.18s.19.06.18.19a2.44,2.44,0,0,0,0,.27Z" transform="translate(-1.5 -0.09)"/>
    <path class="d" d="M6.16,13.53c0,.25,0,.49,0,.74s-.2.13-.31.15-.19,0-.18-.15c0-.49,0-1,.06-1.48,0-.25.22-.09.33-.13s.16,0,.16.16,0,.47,0,.71Z" transform="translate(-1.5 -0.09)"/>
    <path class="e" d="M12.62,13.92c0-1,.19-.77.83-.8.22,0,.26.06.23.25s0,.14-.14.13h-.26c-.12,0-.17.05-.18.17s0,.4,0,.6-.23.13-.36.15-.13-.09-.12-.18A2.73,2.73,0,0,1,12.62,13.92Z" transform="translate(-1.5 -0.09)"/>
    <path class="d" d="M25.28,13.9c0-.84.08-.77.89-.78.18,0,.21.06.21.22s-.1.17-.22.17c-.35,0-.35,0-.37.35,0,.11,0,.22,0,.33s.06.2-.05.23a1.61,1.61,0,0,1-.38,0c-.07,0,0-.07,0-.12Z" transform="translate(-1.5 -0.09)"/>
    <path class="e" d="M16.77,13.78c0-.16,0-.33,0-.49s.2-.13.31-.16.19,0,.18.16c0,.33,0,.68-.05,1s-.23.09-.34.12-.15,0-.14-.14,0-.33,0-.5Z" transform="translate(-1.5 -0.09)"/>
    <path class="f" d="M3.25,13.37h.26c.09,0,.23-.07.21.14s0,.24-.21.22H2.89c-.13,0-.15-.07-.13-.17s0-.2.13-.19Z" transform="translate(-1.5 -0.09)"/>
    <path class="d" d="M14.78,14.23c0,.14,0,.22-.2.2a2.67,2.67,0,0,0-.4,0c-.25,0-.36-.12-.36-.37s0-.4,0-.59a.33.33,0,0,1,.37-.34H15c.27,0,.37.1.37.38l0,.9c-.13.07-.26,0-.39,0s-.1,0-.11-.12a4.57,4.57,0,0,1-.05-.52c0-.13,0-.21-.18-.22a.19.19,0,0,0-.21.2c0,.14,0,.21.16.23S14.85,14,14.78,14.23Zm.56.18c-.48.06-.48.06-.48-.41,0-.09,0-.18,0-.26s0-.25-.23-.24-.31,0-.33.37.16.21.3.2.19,0,.17.16S15.05,14.55,15.34,14.41Z" transform="translate(-1.5 -0.09)"/>
    <path class="d" d="M11.86,14.23c0,.14,0,.22-.19.2a2.81,2.81,0,0,0-.41,0c-.25,0-.36-.12-.35-.37s0-.38,0-.57a.34.34,0,0,1,.38-.36h.79a.29.29,0,0,1,.34.31c0,.38,0,.76,0,1.14a.31.31,0,0,1-.36.32h-.93c-.09,0-.25.09-.23-.13s0-.25.22-.23a4,4,0,0,0,.6,0c.07,0,.16,0,.2-.06a3.31,3.31,0,0,0,0-.77c0-.12-.11-.12-.2-.12a.16.16,0,0,0-.18.16c0,.11,0,.21.09.26l.19,0C11.87,14.07,11.92,14.12,11.86,14.23Zm0,.24a3.35,3.35,0,0,0,.06-.71c0-.21-.05-.28-.26-.26s-.28,0-.3.37.15.21.3.2.18,0,.16.16S11.89,14.39,11.9,14.47Z" transform="translate(-1.5 -0.09)"/>
    <path class="g" d="M17,13c-.06,0-.2.08-.2-.13s.09-.27.28-.24.23,0,.23.16S17.17,13.05,17,13Z" transform="translate(-1.5 -0.09)"/>
    <path class="h" d="M28.49,14.23c0,.09,0,.21-.16.2s-.14-.07-.14-.17,0-.2.16-.19S28.53,14.1,28.49,14.23Z" transform="translate(-1.5 -0.09)"/>
    <path class="d" d="M24.34,14.43h-.43a.27.27,0,0,1-.3-.29,4,4,0,0,1,0-.69.32.32,0,0,1,.36-.32h.81a.3.3,0,0,1,.33.32c0,.19,0,.38,0,.57s-.13.41-.43.41Zm.12-.93c-.35,0-.37,0-.37.29s0,.29.19.29.36,0,.37-.3C24.66,13.64,24.7,13.49,24.46,13.5Z" transform="translate(-1.5 -0.09)"/>
    <path class="d" d="M18.14,14.43h-.41a.28.28,0,0,1-.33-.31,5.32,5.32,0,0,1,0-.69.31.31,0,0,1,.35-.3h.81a.29.29,0,0,1,.33.32c0,.2,0,.39,0,.59s-.13.39-.43.39Zm-.07-.35c.16,0,.4.07.37-.22,0-.12.14-.34-.15-.36s-.38,0-.4.3C17.88,13.93,17.84,14.09,18.07,14.08Z" transform="translate(-1.5 -0.09)"/>
    <path class="i" d="M24.61,10.76a.75.75,0,0,1-.75.74.75.75,0,1,1,0-1.5A.74.74,0,0,1,24.61,10.76Zm-.92.25c0-.06,0-.14,0-.17s.14.06.18.13.15.23.32.15l-.15-.23c0-.06-.06-.07,0-.14s.13-.28-.09-.4h-.26c-.17,0-.24,0-.23.21a5.42,5.42,0,0,1,0,.57C23.62,11.16,23.69,11.16,23.69,11Zm.15-.52c.05,0,.15,0,.15.09s-.1.1-.18.11-.12,0-.12-.1S23.76,10.49,23.84,10.49Z" transform="translate(-1.5 -0.09)"/>
  </g>
</svg>
