<svg xmlns="http://www.w3.org/2000/svg" viewBox="0 0 30 12.39">
  <defs>
    <style>
      .a {
        fill: #ec1b23;
      }

      .b {
        fill: #fefefe;
      }

      .c {
        fill: #fefdfd;
      }
    </style>
  </defs>
  <title>innodisk_logo</title>
  <g>
    <path class="a" d="M30,1.3a.3.3,0,0,1,0,.16V3.7c0,.1,0,.14-.13.14H27.31V1.3Z" transform="translate(-0.02 -1.3)"/>
    <path class="a" d="M27.31,3.83v9.74c0,.1,0,.14-.12.12H.21c-.15,0-.19,0-.19-.19Q0,8.75,0,4c0-.12,0-.17.16-.17H27.31Z" transform="translate(-0.02 -1.3)"/>
    <path class="b" d="M16.84,8.68v1.75c0,.05,0,.11-.07.14a4.17,4.17,0,0,1-1.65.12,1.17,1.17,0,0,1-1.07-1.14,2.51,2.51,0,0,1,0-.82,1.09,1.09,0,0,1,1-.88,1.84,1.84,0,0,1,.93.07c.11,0,.11,0,.11-.09,0-.3,0-.6,0-.9,0-.12,0-.17.15-.16a3.69,3.69,0,0,0,.47,0c.1,0,.12,0,.12.13Z" transform="translate(-0.02 -1.3)"/>
    <path class="b" d="M23.47,9.13l.3.13a1.66,1.66,0,0,1,.95,1.34c0,.1,0,.14-.12.13h-.16a1,1,0,0,1-.39,0c-.13,0-.07-.21-.12-.32a1.54,1.54,0,0,0-1.14-.82c-.09,0-.11,0-.11.1v.94c0,.09,0,.12-.12.12h-.51c-.08,0-.11,0-.11-.11V6.88c0-.09,0-.11.11-.11a4.17,4.17,0,0,0,.5,0c.1,0,.13,0,.13.14V8.56c0,.19,0,.2.19.15a1.28,1.28,0,0,0,1-.86c0-.1.06-.11.15-.08s.31.1.47.15.11,0,.08.14A1.57,1.57,0,0,1,23.47,9.13Z" transform="translate(-0.02 -1.3)"/>
    <path class="b" d="M12.21,10.74a1.76,1.76,0,0,1-.51,0,1.14,1.14,0,0,1-.9-.89,2.49,2.49,0,0,1,0-1.12,1.13,1.13,0,0,1,.88-.84,2.28,2.28,0,0,1,1,0,1.12,1.12,0,0,1,.88.92,2.16,2.16,0,0,1,0,1,1.19,1.19,0,0,1-1.16,1Z" transform="translate(-0.02 -1.3)"/>
    <path class="b" d="M21.3,8.57a3.34,3.34,0,0,0-1-.19,1.63,1.63,0,0,0-.62.08c-.12,0-.23.11-.21.27a.25.25,0,0,0,.26.22h.64a1.82,1.82,0,0,1,.33,0,.74.74,0,0,1,.71.66.84.84,0,0,1-.51,1,2.78,2.78,0,0,1-1.25.1,4.23,4.23,0,0,1-.62-.11c-.09,0-.13,0-.12-.15a2.41,2.41,0,0,0,0-.38c0-.09,0-.12.12-.08a4.36,4.36,0,0,0,1.14.16.87.87,0,0,0,.32-.06.26.26,0,0,0,.19-.3.24.24,0,0,0-.27-.21h-.69a1.38,1.38,0,0,1-.35,0A.68.68,0,0,1,18.83,9a.86.86,0,0,1,.64-1.11,3.07,3.07,0,0,1,1.75,0c.05,0,.09,0,.08.1Z" transform="translate(-0.02 -1.3)"/>
    <path class="b" d="M4.8,8.18a1.85,1.85,0,0,1,1.06-.36.89.89,0,0,1,1,.94c0,.62,0,1.24,0,1.85,0,.09,0,.12-.11.12H6.22c-.09,0-.11,0-.11-.12V9c0-.49-.28-.68-.75-.52a1.27,1.27,0,0,0-.43.26.19.19,0,0,0-.07.17c0,.56,0,1.12,0,1.68,0,.11,0,.16-.15.15H4.24c-.08,0-.12,0-.12-.11q0-1.35,0-2.7c0-.07,0-.11.1-.1H4.3a.91.91,0,0,1,.37,0C4.78,7.89,4.73,8.06,4.8,8.18Z" transform="translate(-0.02 -1.3)"/>
    <path class="b" d="M8.19,8.18a1.89,1.89,0,0,1,.9-.35,1.27,1.27,0,0,1,.58.06.88.88,0,0,1,.57.9c0,.61,0,1.22,0,1.82,0,.09,0,.12-.11.12h-.5c-.11,0-.13,0-.13-.14,0-.53,0-1.07,0-1.6s-.28-.69-.75-.52a1.3,1.3,0,0,0-.41.24.21.21,0,0,0-.09.19v1.67c0,.13,0,.17-.16.16H7.64c-.08,0-.11,0-.11-.11V7.92c0-.07,0-.11.1-.1h.09a.8.8,0,0,1,.35,0C8.17,7.89,8.14,8.05,8.19,8.18Z" transform="translate(-0.02 -1.3)"/>
    <path class="b" d="M3.45,9.28v1.29c0,.12,0,.17-.15.16H2.82c-.08,0-.11,0-.11-.11V7.92c0-.08,0-.1.11-.1h.5c.1,0,.13,0,.13.13Z" transform="translate(-0.02 -1.3)"/>
    <path class="b" d="M18.26,9.27V10.6c0,.1,0,.13-.13.13h-.49c-.08,0-.12,0-.12-.11,0-.9,0-1.8,0-2.7,0-.07,0-.1.11-.1h.51c.1,0,.12,0,.12.13Z" transform="translate(-0.02 -1.3)"/>
    <path class="c" d="M3.08,7.35c-.12,0-.27.05-.34,0s0-.23,0-.36,0-.21.2-.21.28,0,.42,0,.13,0,.12.12V7C3.45,7.36,3.45,7.36,3.08,7.35Z" transform="translate(-0.02 -1.3)"/>
    <path class="c" d="M17.88,7.36c-.36,0-.36,0-.36-.35s0-.24.24-.24.26,0,.4,0,.1,0,.1.1a2.67,2.67,0,0,0,0,.4c0,.08,0,.1-.11.09Z" transform="translate(-0.02 -1.3)"/>
    <path class="a" d="M16.11,9.29v.6s0,.11-.07.13a1.94,1.94,0,0,1-.72.07.56.56,0,0,1-.5-.43,1.42,1.42,0,0,1,0-.79.56.56,0,0,1,.52-.43,1.75,1.75,0,0,1,.68.09.16.16,0,0,1,.11.17C16.1,8.89,16.11,9.09,16.11,9.29Z" transform="translate(-0.02 -1.3)"/>
    <path class="a" d="M11.48,9.24a1,1,0,0,1,0-.33.6.6,0,0,1,.46-.5.73.73,0,0,1,.75.18.44.44,0,0,1,.1.16,1.36,1.36,0,0,1,0,1.05.62.62,0,0,1-.64.36.61.61,0,0,1-.61-.36A1.19,1.19,0,0,1,11.48,9.24Z" transform="translate(-0.02 -1.3)"/>
  </g>
</svg>
