<svg xmlns="http://www.w3.org/2000/svg" viewBox="0 0 39 7.94">
  <defs>
    <style>
      .a {
        fill: #006bb5;
      }
    </style>
  </defs>
  <title>kontron_logo</title>
  <g>
    <path class="a" d="M7.41,8.07s0,.08,0,.12l-.22.22c-.08,0-.13,0-.19-.05C5.81,7.7,4.67,7,3.51,6.29c-.06,0-.12-.12-.2-.06s0,.27.06.32a1.29,1.29,0,0,0,.16.09c1,.48,2,1,3.05,1.5L7,8.39s.09,0,.07.09a1.6,1.6,0,0,1-.37.25,3.5,3.5,0,0,1-.61-.31c-.88-.54-1.77-1.07-2.66-1.6,0,0-.08-.07-.14-.06-.06.24,0,.29.18.4,1,.5,2,1,3,1.46.07,0,.2,0,.22.16A3.88,3.88,0,0,1,5,9.39s-.09,0-.11,0H4.62a.42.42,0,0,0-.27,0H4.13A3.44,3.44,0,0,1,2.4,8.85,3.89,3.89,0,0,1,.54,5.54a3.79,3.79,0,0,1,1.17-2.9A3.68,3.68,0,0,1,4.36,1.51s.08,0,.11,0h.08a1.75,1.75,0,0,0,.51.07,4,4,0,0,1,1.43.49L3.78,4c0,.06,0,.05,0,0l2.92-1.6c.06,0,.11-.09.23-.06L4.36,4.21s0,0,0,.06l.07,0L7.12,2.74a.3.3,0,0,1,.26-.07L4.66,4.6c.09.05.14,0,.2,0L7.45,3.11,7.59,3s0,0,.06,0,0,0,0,.06l-.14.1L5.2,4.85s0,0,0,.05,0,0,.06,0L7.65,3.57l.2-.11s.06,0,.09,0,0,.06,0,.08l-.12.08L5.54,5.24a0,0,0,0,0,0,0s0,0,0,0L8.05,4c.14-.07.16,0,.19.1a4,4,0,0,1-.18,3.16c-.08,0-.14,0-.2,0s-.19-.1-.29-.16L3.33,4.48c-.07.28,0,.33.18.45l4,2.1c.09.07.21.11.3.17s.16,0,.19.14-.11.28-.27.35-.14-.08-.21-.11C6.24,6.84,5,6,3.68,5.26L3.4,5.1c-.07,0-.1,0-.11.06a.3.3,0,0,0,.16.3C4,5.74,4.49,6,5,6.27c.84.44,1.69.86,2.52,1.31a.91.91,0,0,1,.23.15c0,.12-.13.19-.2.29s-.09,0-.14,0a11.58,11.58,0,0,1-1.14-.65c-.92-.54-1.83-1.11-2.75-1.66l-.13-.07c-.05,0-.09,0-.09,0s0,.25.13.31l.19.1C4.85,6.72,6.07,7.34,7.29,8A.26.26,0,0,1,7.41,8.07Z" transform="translate(-0.53 -1.49)"/>
    <path d="M12.37,5.71c.25-.51.5-1,.74-1.54A.25.25,0,0,1,13.37,4h1.4l-.35.63c-.18.32-.34.63-.52.94a.21.21,0,0,0,0,.25c.3.6.58,1.19.87,1.78.09.18.09.18-.12.18H13.36a.23.23,0,0,1-.25-.17c-.24-.59-.49-1.18-.74-1.78-.06,0,0,.1,0,.14,0,.55,0,1.09,0,1.64,0,.14,0,.17-.17.17H10.85c-.13,0-.16,0-.16-.16q0-2.21,0-4.41c0-.12,0-.15.15-.15.45,0,.89,0,1.34,0,.12,0,.16,0,.16.16,0,.75,0,1.51,0,2.27v.19Z" transform="translate(-0.53 -1.49)"/>
    <path d="M37.22,4.44a1.15,1.15,0,0,1,.65-.4,2,2,0,0,1,1.09,0,.75.75,0,0,1,.57.77V7.66c0,.12,0,.15-.14.15h-1.3c-.15,0-.2,0-.19-.19V5.18c0-.27-.1-.35-.37-.34s-.31.1-.31.38V7.61c0,.15,0,.2-.19.2H35.75c-.12,0-.16,0-.16-.15V4.16c0-.11,0-.15.15-.15H37c.15,0,.21,0,.19.19A1.92,1.92,0,0,0,37.22,4.44Z" transform="translate(-0.53 -1.49)"/>
    <path d="M21,4.47a1.68,1.68,0,0,1,1.92-.34.77.77,0,0,1,.39.74V7.09c0,.2,0,.39,0,.59s0,.13-.14.13H21.79c-.12,0-.15,0-.14-.15V5.21c0-.28-.09-.37-.34-.37s-.34.09-.35.35v2.1c0,.16.06.38,0,.48s-.33,0-.49,0h-1c-.1,0-.13,0-.13-.13,0-1.18,0-2.36,0-3.53,0-.1,0-.14.12-.13h1.38c.1,0,.15,0,.14.13S21,4.35,21,4.47Z" transform="translate(-0.53 -1.49)"/>
    <path d="M28.42,4.54a1.58,1.58,0,0,1,1.8-.48.67.67,0,0,1,.52.71c0,.38,0,.76,0,1.14,0,.13,0,.16-.16.16q-.66,0-1.32,0c-.14,0-.17,0-.16-.17s0-.48,0-.73-.11-.33-.34-.33-.34.1-.34.34c0,.81,0,1.63,0,2.44,0,.15,0,.19-.18.19H27c-.15,0-.18,0-.18-.18,0-1.15,0-2.3,0-3.44,0-.13,0-.18.17-.18h1.31c.13,0,.17,0,.16.16S28.42,4.39,28.42,4.54Z" transform="translate(-0.53 -1.49)"/>
    <path d="M24.05,6V4.84c0-.11,0-.14-.14-.14s-.3.06-.38,0,0-.27,0-.4,0-.26.26-.26.29,0,.29-.29,0-.39.4-.39h1.09c.11,0,.14,0,.14.14s0,.27,0,.4,0,.16.16.15h.45c.09,0,.12,0,.11.1V4.6c0,.09,0,.11-.1.11h-.48c-.1,0-.14,0-.14.13,0,.66,0,1.31,0,2,0,.24.07.29.31.31s.31-.06.38,0,0,.27,0,.41,0,.26-.24.25c-.45,0-.91,0-1.36,0A.68.68,0,0,1,24.05,7V6Z" transform="translate(-0.53 -1.49)"/>
    <path d="M18.87,5.94c0,.27,0,.53,0,.8a.83.83,0,0,1-.51.82,2.09,2.09,0,0,1-.85.25,4.26,4.26,0,0,1-1.81-.13,1.4,1.4,0,0,1-.47-.24.76.76,0,0,1-.31-.62c0-.58,0-1.15,0-1.72a.89.89,0,0,1,.52-.86,2.63,2.63,0,0,1,1-.25,4.16,4.16,0,0,1,1.72.17.94.94,0,0,1,.71,1Zm-2.31.92c0,.21.11.3.35.3s.33-.09.33-.29V5c0-.21-.11-.3-.33-.3s-.34.09-.35.31V6.86Z" transform="translate(-0.53 -1.49)"/>
    <path d="M31.19,5.92c0-.28,0-.56,0-.84a.87.87,0,0,1,.51-.83,2.66,2.66,0,0,1,1-.26,4,4,0,0,1,1.68.17,1,1,0,0,1,.72,1c0,.53,0,1,0,1.57a.84.84,0,0,1-.46.78,3,3,0,0,1-1.51.31,3.2,3.2,0,0,1-1.33-.21.88.88,0,0,1-.65-1C31.2,6.42,31.19,6.17,31.19,5.92ZM33.5,5c0-.21-.11-.3-.34-.3s-.34.09-.34.29c0,.64,0,1.29,0,1.93,0,.2.12.29.35.28s.33-.09.33-.3V5Z" transform="translate(-0.53 -1.49)"/>
  </g>
</svg>
