<?xml version="1.0" encoding="utf-8"?>
<!-- Generator: Adobe Illustrator 22.0.1, SVG Export Plug-In . SVG Version: 6.00 Build 0)  -->
<svg version="1.1" class="Lima_Logo_solid" xmlns="http://www.w3.org/2000/svg" xmlns:xlink="http://www.w3.org/1999/xlink" x="0px" y="0px"
	 viewBox="0 0 1204.7 1050.4" style="enable-background:new 0 0 1204.7 1050.4;" xml:space="preserve">
<style type="text/css">
	.st0{fill:#1D1D1B;}
	.st1{fill:#FFFFFF;}
</style>
<title>lima_Logo_solid_50x50</title>
<polygon class="st0" points="602.4,0 903.6,525.2 1204.7,1050.4 602.4,1050.4 0,1050.4 301.2,525.2 "/>
<path class="st1" d="M300.6,707.4v237.1c0,11.2,0.9,18.6,2.5,22.3c1.5,3.5,4.2,6.4,7.5,8.3c3.4,1.9,9.7,2.8,18.9,2.8v7.1h-87.6v-7.1
	c8.2,0,13.8-0.8,16.8-2.5c3.2-1.9,5.7-4.9,7-8.4c1.7-3.9,2.5-11.4,2.5-22.5V782.2c0-20.2-0.4-32.5-1.4-37.2s-2.4-7.8-4.4-9.4
	c-2.2-1.8-4.9-2.7-7.7-2.5c-3.4,0-7.7,1-12.9,3.1l-3.3-6.8l53.3-21.8h8.8V707.4z"/>
<path class="st1" d="M421.8,800.9v143.6c0,11.2,0.8,18.7,2.5,22.4c1.4,3.5,4,6.4,7.3,8.3c3.2,1.8,9,2.7,17.4,2.7v7.1h-86.8v-7.1
	c8.7,0,14.6-0.8,17.6-2.5c3.2-1.9,5.7-4.9,7.1-8.4c1.8-3.9,2.7-11.4,2.7-22.5v-68.8c0-19.4-0.6-32-1.7-37.7c-1-4.1-2.4-7-4.3-8.6
	c-2.3-1.7-5.1-2.6-8-2.5c-3.6,0-8.1,1-13.3,3l-2.7-7l53.9-21.8L421.8,800.9z M405.6,707.4c10.9,0,19.7,8.8,19.7,19.7
	c0.1,5.3-2,10.3-5.8,14c-3.6,3.8-8.7,6-13.9,5.9c-11-0.1-19.8-8.9-19.9-19.9c0-10.8,8.7-19.7,19.5-19.7
	C405.4,707.4,405.5,707.4,405.6,707.4z"/>
<path class="st1" d="M534.3,838.9c13-13,20.7-20.5,23-22.4c5.6-4.8,12-8.7,18.9-11.5c6.4-2.6,13.2-4,20.2-4.1
	c11.2,0,20.8,3.3,28.9,9.8c8,6.5,13.4,15.8,16.1,28.2c13.4-15.6,24.7-25.8,34-30.7c8.8-4.8,18.6-7.3,28.5-7.3
	c9-0.1,17.8,2.4,25.3,7.3c7.4,4.9,13.2,12.8,17.4,23.9c2.9,7.6,4.3,19.4,4.3,35.5v76.9c0,11.2,0.8,18.8,2.5,23
	c1.6,3.2,4.1,5.7,7.2,7.4c3.5,2,9.2,3,17.2,3v7.1h-88.2v-7.1h3.7c7.7,0,13.7-1.4,18-4.4c3-2.1,5.1-5.4,6.4-10.1
	c0.5-2.1,0.8-8.4,0.8-18.8v-76.9c0-14.6-1.8-24.9-5.3-30.8c-5-8.3-13.2-12.5-24.4-12.5c-7.2,0.1-14.4,1.9-20.8,5.2
	c-7,3.4-15.4,9.8-25.3,19.2l-0.3,2.2l0.3,8.4v85.3c0,12.3,0.8,19.9,2.1,22.8s3.9,5.5,7.7,7.5s10.2,3,19.3,3v7.1h-90.4V978
	c9.9,0,16.7-1.2,20.4-3.4c3.8-2.4,6.5-6.2,7.7-10.5c0.6-2.2,1-8.6,1-19.4v-76.9c0-14.6-2.1-25-6.4-31.5c-5.8-8.3-13.8-12.5-24-12.5
	c-7.3,0.1-14.5,2.1-20.9,5.7c-10.8,5.7-19.1,12.2-25,19.3v95.8c0,11.7,0.8,19.4,2.5,22.8c1.4,3.4,4,6.2,7.2,7.9
	c3.2,1.8,9.7,2.6,19.4,2.6v7.1H475v-7.1c8.2,0,13.9-0.8,17.2-2.6c3.3-1.9,6-4.8,7.4-8.4c1.7-3.8,2.5-11.3,2.5-22.4v-68.3
	c0-19.7-0.5-32.3-1.7-38.1c-0.9-4.3-2.4-7.2-4.3-8.8c-2.3-1.7-5.1-2.6-8-2.5c-3.7,0-8,1-13,3l-3-7L526,801h8.4L534.3,838.9z"/>
<path class="st1" d="M903.4,959.2c-18.3,14.2-29.9,22.4-34.6,24.5c-7,3.3-14.7,5-22.4,5c-12.3,0-22.5-4.2-30.5-12.7
	s-12-19.6-12-33.4c0-8.7,2-16.3,5.9-22.7c5.3-8.9,14.6-17.2,27.8-25s35.1-17.3,65.9-28.5v-7c0-17.8-2.8-30-8.5-36.7
	c-5.7-6.6-13.9-10-24.7-10c-8.2,0-14.7,2.2-19.5,6.7s-7.4,9.6-7.4,15.2l0.4,11.4c0,5.9-1.5,10.6-4.6,13.8s-7,4.9-12,4.9
	c-4.5,0.1-8.8-1.7-11.8-5.1c-3.1-3.3-4.6-8-4.6-13.8c0-11.2,5.7-21.5,17.2-30.8s27.5-14.1,48.2-14.1c15.9,0,28.9,2.7,39,8
	c7.7,4.1,13.8,10.8,17,19c2.3,5.5,3.5,17,3.5,34.3v60.7c0,17,0.3,27.5,1,31.4s1.7,6.3,3.2,7.7c1.4,1.3,3.3,2,5.2,2s3.8-0.5,5.5-1.4
	c2.7-1.7,8-6.4,15.8-14.3v11c-14.5,19.5-28.5,29.3-41.8,29.3c-6.4,0-11.4-2.2-15.2-6.7C905.5,977.3,903.5,969.8,903.4,959.2z
	 M903.4,946.5v-68.1c-19.7,7.8-32.4,13.3-38.1,16.6c-10.3,5.7-17.6,11.7-22,17.9c-4.4,6-6.7,13.2-6.7,20.6c0,9.3,2.8,17.1,8.4,23.3
	s12,9.2,19.3,9.2C874.3,966,887.3,959.4,903.4,946.5L903.4,946.5z"/>
</svg>
