<svg xmlns="http://www.w3.org/2000/svg" viewBox="0 0 66.95 66.51"><defs><style>.a{fill:#98989d;}.b{fill:#232329;}.c{fill:#99999e;}.d{fill:#24242a;}.e{fill:#29292f;}.f{fill:#a6cd6f;}.g{fill:#a0ca67;}.h{fill:#99999d;}</style></defs><title>Wilke_Logo</title><path class="a" d="M43.31,51.71c.19,4.72-1.05,9-4.41,12.4-4.44,4.46-9.87,6.12-16,4.45A15.23,15.23,0,0,1,11.3,56.08,15.88,15.88,0,0,1,24.81,37a16.07,16.07,0,0,1,10.07,1.8c.71.39.87.74.46,1.5-1.29,2.4-1.26,2.41-3.77,1.39a12,12,0,0,0-14.92,5.19c.08.52-.25.91-.44,1.34A12.07,12.07,0,0,0,23.56,64.3a11.76,11.76,0,0,0,8.2-.33,10.3,10.3,0,0,0,.94-.47,12.83,12.83,0,0,0,5.66-6.57c1-1.8,2.42-3.33,3.29-5.22.47-.49.36-1.46,1.3-1.56C43.51,50.57,43,51.24,43.31,51.71Z" transform="translate(-1.53 -4.25)"/><path class="b" d="M22.43,11.59l1.92-6.48a1,1,0,0,1,1.06-.72c.43,0,.87,0,1.3,0,1.36,0,1.36,0,1.35,1.39a1.3,1.3,0,0,1-.36,1c-1.06,3.81-2.16,7.62-3.17,11.44-.25.92-.58,1.3-1.6,1.27-2.33-.09-2.33,0-3-2.28a53.68,53.68,0,0,0-1.81-5.51c-.66,2.24-1.36,4.47-2,6.73a1.19,1.19,0,0,1-1.4,1.05c-2.68,0-2.69,0-3.28-2.54-.91-3.85-1.77-7.71-2.71-11.56-.23-.93,0-1.15.92-1.13,2.53,0,2.52,0,3.13,2.46A40.73,40.73,0,0,0,14.42,12C15,10,15.56,8,16.19,5.94c.18-.57,0-1.49.77-1.61a14.45,14.45,0,0,1,3.22,0c.35,0,.31.51.38.81.47,2.07.94,4.13,1.4,6.2C22.1,11.48,22.14,11.78,22.43,11.59Z" transform="translate(-1.53 -4.25)"/><path class="c" d="M36.57,25a5.35,5.35,0,0,1,4-.94,3.56,3.56,0,0,1,3,3.62c0,2.35,0,4.71,0,7.07,0,.92-.28,1.17-1.17,1.14-2.35-.08-2,.23-2-2,0-1.59,0-3.19,0-4.79a2,2,0,0,0-2.46-2.06,1.48,1.48,0,0,0-1.39,1.64c0,2,0,4,0,6,0,.85-.16,1.21-1.11,1.19-2.27,0-2.27,0-2.27-2.29,0-4,0-7.92,0-11.88,0-1,.28-1.23,1.22-1.2,2.48.08,2.14-.27,2.16,2.19C36.57,23.4,36.57,24.11,36.57,25Z" transform="translate(-1.53 -4.25)"/><path class="b" d="M48.38,19.41c-3.78.18-3.78.18-5.77-2.74a4.73,4.73,0,0,0-1.26-1.37c0,1.09,0,2.19,0,3.28,0,.67-.21.88-.89.89-2.41.06-2.41.08-2.41-2.37,0-3.88,0-7.76,0-11.64,0-.85.16-1.19,1.11-1.17,2.2,0,2.2,0,2.2,2.22v5.85l.24.12c.79-1.11,1.65-2.19,2.36-3.35A2.06,2.06,0,0,1,46.19,8a21.48,21.48,0,0,0,2.45,0,31.29,31.29,0,0,1-2.4,3.55c-1.32,1.51-1.37,2.81-.06,4.35A27.1,27.1,0,0,1,48.38,19.41Z" transform="translate(-1.53 -4.25)"/><path class="c" d="M48.53,25.09a4.3,4.3,0,0,1,5-.76,3.07,3.07,0,0,1,2,3c0,2.52,0,5,0,7.56,0,.83-.32,1-1.06,1-2.31,0-2.31,0-2.31-2.24,0-1.48,0-3,0-4.44A1.94,1.94,0,0,0,50.31,27c-1.17,0-1.89.79-1.9,2.11,0,1.92,0,3.84,0,5.76,0,.7-.18,1-.94,1-3.07-.08-2.43.4-2.47-2.43s0-5.52,0-8.28c0-.82.22-1.19,1.08-1.08a5.35,5.35,0,0,0,1.2,0C48,24,48.48,24.14,48.53,25.09Z" transform="translate(-1.53 -4.25)"/><path class="c" d="M60.43,43.48c.7-.2.82-.72,1.07-1.09,1-1.52,2-3.07,3-4.61a3.53,3.53,0,0,1,3.41-.87c.52.28.1.54,0,.76-1.11,1.75-2.24,3.49-3.37,5.23q-2.75,4.22-5.5,8.43c-.41.63-3.1,1.14-3.72.72a.3.3,0,0,1-.14-.4,1.79,1.79,0,0,1,.31-.51c1.73-1.82,2-4,1.85-6.42-.13-2.23,0-4.48-.05-6.71,0-.9.28-1.19,1.17-1.17,2.38.07,2-.19,2,1.95C60.45,40.33,60.43,41.87,60.43,43.48Z" transform="translate(-1.53 -4.25)"/><path class="c" d="M5.37,29.85c0-1.68,0-3.36,0-5,0-.71-.2-1-.95-1-2.41-.05-2.39-.08-2.21-2.56,0-.56.22-.78.78-.77H11.4c.56,0,.82.21.77.78,0,.16,0,.32,0,.48,0,2,0,2.06-2,2.06-.84,0-1,.35-1,1.08,0,3.27,0,6.55,0,9.82,0,.92-.28,1.15-1.16,1.14-2.73,0-2.73,0-2.73-2.67Z" transform="translate(-1.53 -4.25)"/><path class="c" d="M1.54,44.55c0-2.2,0-4.39,0-6.59,0-.7.17-1,.93-1,3.14-.09,3.13-.12,3.13,3,0,2.59,0,5.19,0,7.79,0,.8.25,1.06,1,1s1.84,0,2.75,0c.62,0,.85.22.84.84,0,3.08.32,2.48-2.41,2.52-1.72,0-3.44,0-5.15,0-.83,0-1.13-.26-1.11-1.1.05-2.16,0-4.31,0-6.47Z" transform="translate(-1.53 -4.25)"/><path class="c" d="M31.81,31.76v1.57c0,1.85-.76,2.63-2.65,2.72a6.21,6.21,0,0,1-6.52-6.4,5.9,5.9,0,0,1,6.82-5.57,2.63,2.63,0,0,1,2.34,3.7c-.21.57-.52.19-.75.08a3.93,3.93,0,0,0-3.21-.42A2.53,2.53,0,0,0,26,30a2.42,2.42,0,0,0,1.78,2.53A4.36,4.36,0,0,0,31.81,31.76Z" transform="translate(-1.53 -4.25)"/><path class="d" d="M33.17,11.84c0-2.19,0-4.39,0-6.58,0-.72.17-1,.93-1,2.45,0,2.45-.06,2.45,2.42,0,3.91,0,7.82,0,11.73,0,.76-.19,1-1,1-2.39,0-2.39,0-2.39-2.38Z" transform="translate(-1.53 -4.25)"/><path class="d" d="M31.61,13.84c0,1.59,0,3.19,0,4.79,0,.6-.18.81-.82.84-2.59.12-2.59.14-2.59-2.41s0-5.27,0-7.9c0-.73.2-1,.94-1,2.48,0,2.48,0,2.48,2.4Z" transform="translate(-1.53 -4.25)"/><path class="e" d="M27.76,5.91c.22-1.1-.27-1.44-1.31-1.28-.71.11-1.53-.25-2.1.48-.05-.6.21-.86.84-.85,1.87,0,3.75,0,5.62,0,.61,0,.89.18.84.83,0,.43,0,.87,0,1.31s-.1.58-.46.56a8.62,8.62,0,0,1-2.95-.17.61.61,0,0,1-.23-.7C28.11,5.72,27.9,5.89,27.76,5.91Z" transform="translate(-1.53 -4.25)"/><path class="f" d="M37.48,70.28c0,.16-.29.2-.46.34a.51.51,0,0,1-.74-.06c-.62-.67-1.23-1.35-1.85-2-.11-.13-.24-.31-.13-.4a1.24,1.24,0,0,1,.83-.38A7.37,7.37,0,0,1,37.48,70.28Z" transform="translate(-1.53 -4.25)"/><path class="g" d="M31.1,63.42a34.28,34.28,0,0,1-2.51-6.56A10.7,10.7,0,0,1,29,50.29c1.12-1.74,2.49-3.29,3.73-4.94a30.1,30.1,0,0,0,4.64-7.84,13,13,0,0,0,.14-2.79c0-.3-.22-.75.36-.82a23.53,23.53,0,0,1,4.58,7.8,11,11,0,0,1,0,8.06c.12.69-.42,1.16-.6,1.74a25,25,0,0,1-4.07,5.36c-1.13,1.23-2.53,2.17-3.66,3.4a7.19,7.19,0,0,0-1.35,1.8,7,7,0,0,0-.19,1C32.28,63.88,31.89,64,31.1,63.42Zm7.41-20.85c-.31.86-.45,1.76-.76,2.63-1.07,3-3.07,5.55-4.72,8.27-1.05,1.72-2.19,3.46-1.94,5.65.28.16.34-.11.48-.24a16.45,16.45,0,0,1,3.29-6.67,25.75,25.75,0,0,0,2.72-4.48c.91-1.85,1.9-3.7,1.44-5.89C38.38,41.75,38.85,42.44,38.51,42.57Z" transform="translate(-1.53 -4.25)"/><path class="h" d="M46.21,47.59a6.28,6.28,0,0,1-2.63-4.5,5.51,5.51,0,0,1,6-6.27,35.09,35.09,0,0,0,4.7,0c1.09-.05,1.35.31,1.32,1.35-.06,3.11,0,6.23,0,9.34,0,2.66-1.17,4.31-3.73,5s-5,.41-6.9-1.73c-.51-.59-1-1.24-.64-2.13,1.57,0,3.15-.42,4.62.67,1,.77,2.09.32,2.93-1C49.8,48.91,47.91,49,46.21,47.59Zm.73-5.16a2.76,2.76,0,0,0,2.6,2.76,2.86,2.86,0,0,0,2.85-2.68,2.9,2.9,0,0,0-2.76-2.78A2.86,2.86,0,0,0,46.94,42.43Z" transform="translate(-1.53 -4.25)"/><path class="b" d="M54.67,14.93H51.43c-.23,0-.52-.09-.65.16s.08.53.25.75a2.29,2.29,0,0,0,2.83.55c1.35-.63,2.76-.28,4.13-.27.72,0,.21.59.06.85a5.86,5.86,0,0,1-8.21,2.11,5.5,5.5,0,0,1-2.6-6.86A5.7,5.7,0,0,1,53.55,8a5.92,5.92,0,0,1,5.27,5.11c.24,1.59,0,1.82-1.51,1.82ZM51,11.84c-.26.39-.44.75.29.75H55C54,10.61,52,10.34,51,11.84Z" transform="translate(-1.53 -4.25)"/><path class="c" d="M17.69,31H14.45c-.22,0-.51-.06-.61.24a.66.66,0,0,0,.22.64,2,2,0,0,0,2.36.72c1.37-.62,2.75-.33,4.13-.44,1-.07.85.34.49,1a5.86,5.86,0,0,1-8.63,1.69A6,6,0,0,1,16.8,24.1a5.88,5.88,0,0,1,5,5.07c.29,1.79-.08,1.95-1.51,1.86C19.46,31,18.57,31,17.69,31Zm-1.28-2.38c.51-.12,1.43.29,1.47-.24.05-.77-.76-1.24-1.53-1.42a2.05,2.05,0,0,0-1.71.31c-.38.28-.86.64-.72,1.13s.7.17,1.07.21a7.51,7.51,0,0,0,.95,0A2.46,2.46,0,0,0,16.41,28.64Z" transform="translate(-1.53 -4.25)"/><path class="c" d="M62.36,24a6,6,0,0,1,6.11,6,6.06,6.06,0,0,1-12.11,0A6,6,0,0,1,62.36,24Zm0,3.34A2.56,2.56,0,0,0,59.63,30a2.67,2.67,0,1,0,5.33.07A2.54,2.54,0,0,0,62.39,27.38Z" transform="translate(-1.53 -4.25)"/><path class="b" d="M30,6.56c-.79,0-1.56.25-1.56-1s.9-.91,1.56-1,1.4-.15,1.38,1S30.45,6.43,30,6.56Z" transform="translate(-1.53 -4.25)"/></svg>